<svg xmlns="http://www.w3.org/2000/svg" xmlns:xlink="http://www.w3.org/1999/xlink" width="793" zoomAndPan="magnify" viewBox="0 0 594.95996 842.24997" height="1122" preserveAspectRatio="xMidYMid meet" version="1.0"><defs><clipPath id="a5b17ec90d"><path d="M 59.71875 59.476562 L 535.546875 59.476562 L 535.546875 516.566406 L 59.71875 516.566406 Z M 59.71875 59.476562 " clip-rule="nonzero"/></clipPath></defs><g clip-path="url(#a5b17ec90d)"><path fill="#ffffff" d="M 123.238281 402.824219 C 123.238281 405.527344 121 407.769531 118.296875 407.769531 C 115.589844 407.769531 113.351562 405.527344 113.351562 402.824219 C 113.351562 388.554688 118.761719 374.933594 128.367188 364.207031 C 93.578125 358.238281 59.71875 329.511719 59.71875 287.164062 C 59.71875 271.773438 64.570312 257.035156 73.804688 244.351562 C 75.390625 242.113281 78.46875 241.648438 80.707031 243.230469 C 82.945312 244.816406 83.410156 247.894531 81.824219 250.132812 C 73.804688 261.140625 69.605469 273.917969 69.605469 287.164062 C 69.605469 328.113281 106.078125 354.507812 139.933594 355.535156 C 141.988281 355.628906 143.851562 356.933594 144.503906 358.890625 C 145.160156 360.851562 144.503906 363.089844 142.828125 364.300781 C 130.328125 373.910156 123.238281 387.902344 123.238281 402.824219 Z M 99.828125 232.132812 C 100.667969 232.132812 101.597656 231.945312 102.34375 231.386719 C 113.351562 224.765625 126.222656 221.03125 139.375 220.660156 C 141.425781 220.566406 143.292969 219.261719 143.945312 217.300781 C 144.597656 215.34375 143.945312 213.199219 142.265625 211.890625 C 129.863281 202.285156 122.773438 188.292969 122.773438 173.371094 C 122.773438 145.574219 147.304688 123.003906 177.429688 123.003906 L 178.085938 123.003906 C 179.578125 123.003906 180.882812 122.347656 181.816406 121.230469 C 182.746094 120.109375 183.121094 118.617188 182.933594 117.21875 C 180.414062 103.042969 186.105469 92.59375 191.421875 86.34375 C 200.097656 75.992188 213.714844 69.554688 226.960938 69.554688 C 229.664062 69.554688 231.902344 67.316406 231.902344 64.613281 C 231.902344 61.90625 229.664062 59.667969 226.960938 59.667969 C 210.917969 59.667969 194.40625 67.410156 183.867188 80.003906 C 175.84375 89.609375 171.929688 101.269531 172.582031 113.300781 C 139.28125 115.632812 112.886719 141.65625 112.886719 173.371094 C 112.886719 187.640625 118.203125 201.164062 127.808594 211.890625 C 116.894531 213.664062 106.542969 217.394531 97.214844 222.992188 C 94.882812 224.390625 94.136719 227.46875 95.535156 229.800781 C 96.46875 231.292969 98.148438 232.132812 99.828125 232.132812 Z M 512.285156 334.453125 C 514.152344 336.414062 514.152344 339.492188 512.191406 341.449219 C 499.785156 353.480469 483.648438 361.503906 466.765625 364.300781 C 476.375 375.027344 481.785156 388.554688 481.785156 402.824219 C 481.785156 434.445312 455.574219 460.46875 422.277344 462.894531 C 422.277344 469.328125 420.691406 477.070312 420.691406 477.164062 C 414.253906 503 389.164062 516.527344 367.710938 516.527344 C 337.675781 516.527344 313.238281 493.671875 313.238281 465.597656 L 313.425781 353.480469 L 281.898438 353.480469 L 282.085938 465.597656 C 282.085938 493.671875 257.648438 516.527344 227.613281 516.527344 C 206.160156 516.527344 180.976562 503 174.632812 477.070312 C 174.632812 476.976562 173.046875 469.328125 173.046875 462.800781 C 153.179688 461.402344 135.179688 451.511719 124.171875 435.84375 C 122.585938 433.605469 123.144531 430.527344 125.382812 428.941406 C 127.621094 427.355469 130.699219 427.914062 132.285156 430.152344 C 142.453125 444.519531 159.617188 453.097656 178.175781 453.097656 L 178.921875 453.097656 C 181.628906 453.097656 183.867188 455.335938 183.867188 458.042969 C 183.867188 459.070312 183.585938 460 183.027344 460.839844 C 182.839844 464.011719 183.867188 472.78125 184.332031 474.738281 C 189.558594 495.632812 210.078125 506.636719 227.800781 506.636719 C 252.421875 506.636719 272.476562 488.171875 272.476562 465.503906 L 271.917969 353.390625 L 240.296875 353.390625 C 237.3125 353.390625 234.609375 351.898438 233.023438 349.566406 C 232.742188 349.097656 232.464844 348.632812 232.277344 348.164062 L 221.644531 348.164062 L 221.644531 424.277344 C 228.453125 426.421875 233.488281 432.671875 233.488281 440.132812 C 233.488281 449.367188 226.027344 456.828125 216.792969 456.828125 C 207.558594 456.828125 200.097656 449.367188 200.097656 440.132812 C 200.097656 432.671875 205.039062 426.328125 211.847656 424.277344 L 211.847656 343.222656 C 211.847656 340.515625 214.089844 338.277344 216.792969 338.277344 L 231.53125 338.277344 L 231.53125 318.691406 L 177.058594 318.691406 L 177.058594 345.085938 C 183.867188 347.234375 188.8125 353.480469 188.8125 360.945312 C 188.8125 370.179688 181.347656 377.640625 172.113281 377.640625 C 162.878906 377.640625 155.417969 370.179688 155.417969 360.945312 C 155.417969 353.480469 160.457031 347.140625 167.265625 345.085938 L 167.265625 313.839844 C 167.265625 311.136719 169.503906 308.898438 172.207031 308.898438 L 231.625 308.898438 L 231.625 290.617188 L 143.851562 290.617188 C 141.707031 297.425781 135.457031 302.367188 127.996094 302.367188 C 118.761719 302.367188 111.300781 294.90625 111.300781 285.671875 C 111.300781 276.4375 118.761719 268.976562 127.996094 268.976562 C 135.457031 268.976562 141.800781 274.011719 143.851562 280.820312 L 231.4375 280.820312 L 231.4375 266.457031 L 172.019531 266.457031 C 169.316406 266.457031 167.078125 264.21875 167.078125 261.515625 L 167.078125 230.265625 C 160.269531 228.121094 155.230469 221.871094 155.230469 214.410156 C 155.230469 205.175781 162.695312 197.714844 171.929688 197.714844 C 181.164062 197.714844 188.625 205.175781 188.625 214.410156 C 188.625 221.871094 183.679688 228.214844 176.871094 230.265625 L 176.871094 256.664062 L 231.34375 256.664062 L 231.34375 237.078125 L 216.605469 237.078125 C 213.902344 237.078125 211.664062 234.835938 211.664062 232.132812 L 211.664062 157.605469 C 204.855469 155.460938 199.910156 149.210938 199.910156 141.75 C 199.910156 132.515625 207.371094 125.054688 216.605469 125.054688 C 225.839844 125.054688 233.300781 132.515625 233.300781 141.75 C 233.300781 149.210938 228.265625 155.554688 221.457031 157.605469 L 221.457031 227.1875 L 231.808594 227.1875 C 233.023438 223.644531 236.289062 221.03125 240.296875 221.03125 L 271.636719 221.03125 L 271.453125 110.503906 C 271.453125 95.394531 262.496094 81.496094 248.039062 74.3125 C 245.613281 73.101562 244.589844 70.117188 245.800781 67.691406 C 247.015625 65.265625 250 64.238281 252.421875 65.453125 C 270.238281 74.3125 281.339844 91.570312 281.339844 110.503906 L 281.523438 221.03125 L 313.425781 221.03125 L 313.519531 110.503906 C 313.519531 82.429688 337.957031 59.574219 367.988281 59.574219 C 376.105469 59.574219 384.5 61.535156 392.242188 65.359375 C 394.667969 66.570312 395.691406 69.460938 394.480469 71.980469 C 393.265625 74.40625 390.375 75.433594 387.859375 74.21875 C 381.421875 71.140625 374.519531 69.460938 367.898438 69.460938 C 343.273438 69.460938 323.3125 87.929688 323.3125 110.597656 L 323.21875 221.125 L 354.558594 221.125 C 357.542969 221.125 360.25 222.617188 361.835938 224.949219 C 362.300781 225.695312 362.671875 226.441406 362.953125 227.28125 L 373.308594 227.28125 L 373.308594 157.699219 C 366.496094 155.554688 361.460938 149.304688 361.460938 141.84375 C 361.460938 132.609375 368.921875 125.148438 378.15625 125.148438 C 387.390625 125.148438 394.851562 132.609375 394.851562 141.84375 C 394.851562 149.304688 389.910156 155.648438 383.101562 157.699219 L 383.101562 232.226562 C 383.101562 234.929688 380.863281 237.167969 378.15625 237.167969 L 363.417969 237.167969 L 363.417969 256.757812 L 417.890625 256.757812 L 417.890625 230.265625 C 411.082031 228.121094 406.140625 221.871094 406.140625 214.410156 C 406.140625 205.175781 413.601562 197.714844 422.835938 197.714844 C 432.070312 197.714844 439.53125 205.175781 439.53125 214.410156 C 439.53125 221.871094 434.496094 228.214844 427.6875 230.265625 L 427.6875 261.515625 C 427.6875 264.21875 425.445312 266.457031 422.742188 266.457031 L 363.328125 266.457031 L 363.328125 280.820312 L 450.910156 280.820312 C 453.054688 274.011719 459.304688 268.976562 466.765625 268.976562 C 476 268.976562 483.464844 276.4375 483.464844 285.671875 C 483.464844 294.90625 476 302.367188 466.765625 302.367188 C 459.304688 302.367188 452.960938 297.425781 450.910156 290.617188 L 363.328125 290.617188 L 363.328125 308.898438 L 422.742188 308.898438 C 425.445312 308.898438 427.6875 311.136719 427.6875 313.839844 L 427.6875 345.085938 C 434.496094 347.234375 439.53125 353.480469 439.53125 360.945312 C 439.53125 370.179688 432.070312 377.640625 422.835938 377.640625 C 413.601562 377.640625 406.140625 370.179688 406.140625 360.945312 C 406.140625 353.480469 411.082031 347.140625 417.890625 345.085938 L 417.890625 318.878906 L 363.417969 318.878906 L 363.417969 338.464844 L 378.15625 338.464844 C 380.863281 338.464844 383.101562 340.703125 383.101562 343.410156 L 383.101562 424.464844 C 389.910156 426.609375 394.851562 432.859375 394.851562 440.320312 C 394.851562 449.554688 387.390625 457.015625 378.15625 457.015625 C 368.921875 457.015625 361.460938 449.554688 361.460938 440.320312 C 361.460938 432.859375 366.496094 426.515625 373.308594 424.464844 L 373.308594 348.351562 L 362.859375 348.351562 C 362.765625 348.539062 362.671875 348.726562 362.582031 348.910156 C 361.085938 351.710938 358.195312 353.574219 354.839844 353.574219 L 323.21875 353.574219 L 323.03125 465.691406 C 323.03125 488.355469 343.085938 506.730469 367.710938 506.730469 C 385.339844 506.730469 405.953125 495.726562 411.175781 474.832031 C 411.550781 472.964844 412.667969 464.199219 412.480469 461.027344 C 411.921875 460.28125 411.640625 459.253906 411.640625 458.230469 C 411.640625 455.523438 413.882812 453.285156 416.585938 453.285156 L 417.332031 453.285156 C 447.460938 453.285156 471.992188 430.714844 471.992188 402.917969 C 471.992188 387.992188 464.902344 374.003906 452.496094 364.488281 C 450.816406 363.183594 450.164062 361.039062 450.816406 359.078125 C 451.46875 357.121094 453.242188 355.722656 455.386719 355.722656 C 473.855469 355.160156 492.136719 347.511719 505.476562 334.546875 C 507.339844 332.402344 510.417969 332.496094 512.285156 334.453125 Z M 371.535156 440.226562 C 371.535156 444.050781 374.613281 447.128906 378.4375 447.128906 C 382.261719 447.128906 385.339844 444.050781 385.339844 440.226562 C 385.339844 436.402344 382.261719 433.324219 378.4375 433.324219 C 374.613281 433.324219 371.535156 436.402344 371.535156 440.226562 Z M 416.304688 361.128906 C 416.304688 364.953125 419.382812 368.03125 423.207031 368.03125 C 427.03125 368.03125 430.109375 364.953125 430.109375 361.128906 C 430.109375 357.398438 427.125 354.320312 423.394531 354.320312 C 423.394531 354.320312 423.300781 354.320312 423.300781 354.320312 C 423.300781 354.320312 423.207031 354.320312 423.207031 354.320312 C 419.289062 354.320312 416.304688 357.304688 416.304688 361.128906 Z M 460.332031 285.671875 C 460.332031 285.765625 460.332031 285.765625 460.332031 285.859375 C 460.332031 285.953125 460.332031 285.953125 460.332031 286.046875 C 460.425781 289.777344 463.503906 292.667969 467.140625 292.667969 C 470.964844 292.667969 474.042969 289.589844 474.042969 285.765625 C 474.042969 281.941406 470.964844 278.863281 467.140625 278.863281 C 463.410156 278.957031 460.425781 281.941406 460.332031 285.671875 Z M 423.023438 221.3125 C 423.113281 221.3125 423.113281 221.21875 423.023438 221.3125 C 423.113281 221.3125 423.113281 221.3125 423.207031 221.3125 C 426.9375 221.3125 430.015625 218.234375 430.015625 214.410156 C 430.015625 210.585938 426.9375 207.507812 423.113281 207.507812 C 419.289062 207.507812 416.210938 210.585938 416.210938 214.410156 C 416.304688 218.140625 419.289062 221.21875 423.023438 221.3125 Z M 378.4375 148.652344 C 382.261719 148.652344 385.339844 145.574219 385.339844 141.75 C 385.339844 137.925781 382.261719 134.847656 378.4375 134.847656 C 374.613281 134.847656 371.535156 137.925781 371.535156 141.75 C 371.535156 145.574219 374.613281 148.652344 378.4375 148.652344 Z M 223.601562 141.75 C 223.601562 137.925781 220.523438 134.847656 216.699219 134.847656 C 212.875 134.847656 209.796875 137.925781 209.796875 141.75 C 209.796875 145.574219 212.875 148.652344 216.699219 148.652344 C 220.523438 148.652344 223.601562 145.574219 223.601562 141.75 Z M 178.832031 214.410156 C 178.832031 210.585938 175.753906 207.507812 171.929688 207.507812 C 168.105469 207.507812 165.027344 210.585938 165.027344 214.410156 C 165.027344 218.140625 168.105469 221.21875 171.835938 221.3125 C 171.835938 221.3125 171.929688 221.3125 171.929688 221.3125 C 171.929688 221.3125 171.929688 221.3125 172.019531 221.3125 C 175.84375 221.21875 178.832031 218.140625 178.832031 214.410156 Z M 134.804688 285.859375 C 134.804688 285.765625 134.804688 285.765625 134.804688 285.671875 C 134.710938 281.941406 131.726562 278.957031 127.996094 278.957031 C 124.171875 278.957031 121.09375 282.035156 121.09375 285.859375 C 121.09375 289.683594 124.171875 292.761719 127.996094 292.761719 C 131.726562 292.761719 134.710938 289.777344 134.804688 286.136719 C 134.804688 285.953125 134.804688 285.859375 134.804688 285.859375 Z M 172.113281 354.226562 C 172.113281 354.226562 172.019531 354.226562 172.019531 354.226562 C 172.019531 354.226562 171.929688 354.226562 171.929688 354.226562 C 168.195312 354.320312 165.210938 357.304688 165.210938 361.039062 C 165.210938 364.863281 168.289062 367.941406 172.113281 367.941406 C 175.9375 367.941406 179.015625 364.863281 179.015625 361.039062 C 178.832031 357.304688 175.84375 354.320312 172.113281 354.226562 Z M 216.699219 433.324219 C 212.875 433.324219 209.796875 436.402344 209.796875 440.226562 C 209.796875 444.050781 212.875 447.128906 216.699219 447.128906 C 220.523438 447.128906 223.601562 444.050781 223.601562 440.226562 C 223.601562 436.402344 220.523438 433.324219 216.699219 433.324219 Z M 353.8125 343.59375 L 353.8125 231.011719 L 318.460938 231.011719 C 318.460938 231.011719 318.367188 231.011719 318.367188 231.011719 L 276.769531 231.011719 C 276.769531 231.011719 276.675781 231.011719 276.675781 231.011719 L 241.324219 231.011719 L 241.324219 343.503906 L 353.8125 343.503906 Z M 467.234375 211.890625 C 476.839844 201.164062 482.15625 187.640625 482.15625 173.371094 C 482.15625 141.65625 455.761719 115.632812 422.460938 113.300781 C 423.300781 99.589844 418.265625 86.71875 407.910156 76.363281 C 405.953125 74.40625 402.875 74.5 400.914062 76.363281 C 398.957031 78.324219 399.050781 81.402344 400.914062 83.359375 C 410.335938 92.6875 414.253906 104.71875 412.109375 117.21875 C 411.828125 118.617188 412.296875 120.109375 413.226562 121.230469 C 414.160156 122.347656 415.558594 123.003906 416.960938 123.003906 L 417.613281 123.003906 C 447.738281 123.003906 472.269531 145.574219 472.269531 173.371094 C 472.269531 188.292969 465.183594 202.285156 452.777344 211.890625 C 451.097656 213.199219 450.445312 215.34375 451.097656 217.300781 C 451.75 219.261719 453.523438 220.660156 455.667969 220.660156 C 494.84375 221.78125 525.53125 251.066406 525.53125 287.164062 C 525.53125 295.839844 523.851562 304.234375 520.679688 312.070312 C 519.652344 314.585938 520.867188 317.476562 523.386719 318.503906 C 524.039062 318.785156 524.691406 318.878906 525.25 318.878906 C 527.210938 318.878906 528.980469 317.757812 529.820312 315.800781 C 533.550781 306.753906 535.511719 297.144531 535.511719 287.164062 C 535.417969 249.296875 506.316406 217.953125 467.234375 211.890625 Z M 324.339844 269.441406 L 324.339844 305.074219 C 324.339844 310.015625 320.328125 314.027344 315.382812 314.027344 L 279.753906 314.027344 C 274.808594 314.027344 270.796875 310.015625 270.796875 305.074219 L 270.796875 269.441406 C 270.796875 264.5 274.808594 260.488281 279.753906 260.488281 L 315.382812 260.488281 C 320.328125 260.488281 324.339844 264.5 324.339844 269.441406 Z M 314.449219 270.375 L 280.59375 270.375 L 280.59375 304.234375 L 314.449219 304.234375 Z M 314.449219 270.375 " fill-opacity="1" fill-rule="nonzero"/></g></svg>