<svg xmlns="http://www.w3.org/2000/svg" xmlns:xlink="http://www.w3.org/1999/xlink" width="793" zoomAndPan="magnify" viewBox="0 0 595.5 842.249979" height="1122" preserveAspectRatio="xMidYMid meet" version="1.0"><path fill="#ffffff" d="M 211.5 79.097656 C 204.230469 81.460938 200.074219 87.347656 200.421875 94.792969 L 200.59375 98.023438 L 197.707031 99.582031 C 196.148438 100.449219 182.703125 107.316406 167.757812 114.875 C 152.867188 122.4375 131.746094 133.167969 120.898438 138.710938 L 101.101562 148.808594 L 98.679688 146.671875 C 88.867188 138.304688 73.402344 145.519531 73.402344 158.503906 C 73.402344 164.449219 76.460938 169.351562 82.058594 172.296875 L 85.523438 174.144531 L 85.523438 232.257812 L 82.40625 234.566406 C 78.136719 237.796875 76.289062 241.546875 76.289062 247.03125 C 76.289062 251.878906 77.441406 254.761719 80.617188 257.878906 C 83.558594 260.824219 86.328125 261.976562 90.773438 262.265625 C 93.773438 262.4375 95.160156 262.207031 97.527344 261.226562 C 99.3125 260.417969 100.757812 260.128906 101.277344 260.476562 C 101.738281 260.707031 114.839844 270.171875 130.476562 281.367188 L 158.8125 301.855469 L 158.8125 304.449219 C 158.8125 307.738281 160.890625 312.242188 163.488281 314.722656 C 169.085938 320.03125 178.03125 320.4375 183.628906 315.644531 L 185.9375 313.625 L 220.617188 323.089844 L 255.246094 332.496094 L 256.628906 335.902344 C 259.398438 342.710938 265.402344 346.867188 272.5 346.808594 C 276.308594 346.808594 280.808594 345.308594 282.886719 343.460938 C 283.695312 342.710938 285.542969 343.402344 299.046875 349.695312 L 314.28125 356.792969 L 314.339844 360.832031 C 314.511719 369.257812 320.109375 375.316406 328.363281 376.011719 L 332.113281 376.355469 L 343.886719 406.597656 L 355.660156 436.835938 L 353.925781 438.625 C 348.792969 443.933594 349.253906 453.339844 354.910156 458.015625 C 358.140625 460.667969 362.527344 461.765625 366.390625 460.898438 C 376.722656 458.589844 380.589844 446.070312 373.316406 438.507812 C 370.894531 435.96875 368.699219 434.875 365.121094 434.410156 L 362.238281 434.066406 L 338.691406 373.816406 L 341.117188 371.105469 C 343.539062 368.335938 345.214844 364.121094 345.214844 360.773438 C 345.214844 357.660156 343.597656 353.332031 341.578125 350.964844 L 339.617188 348.65625 L 350.636719 326.035156 C 358.773438 309.355469 362.007812 303.296875 362.988281 302.835938 C 363.679688 302.488281 365.066406 300.929688 366.046875 299.429688 C 367.546875 296.949219 367.949219 296.660156 369.449219 296.890625 C 370.894531 297.121094 371.238281 297.527344 371.757812 299.546875 C 372.796875 303.699219 373.894531 305.433594 376.03125 306.46875 C 378.050781 307.394531 378.339844 307.394531 385.492188 305.894531 C 392.015625 304.449219 393.054688 304.105469 394.785156 302.375 C 396.691406 300.46875 396.746094 300.296875 396.402344 296.832031 C 396.285156 294.871094 396.054688 292.910156 395.941406 292.503906 C 395.824219 292.101562 396.34375 291.351562 397.152344 290.890625 C 398.59375 290.023438 398.765625 290.023438 401.480469 291.753906 C 405.691406 294.410156 408.578125 294.0625 411.636719 290.542969 L 413.078125 288.8125 L 421.214844 292.851562 L 429.296875 296.949219 L 429.640625 300.527344 C 429.816406 302.777344 430.566406 305.316406 431.660156 307.566406 L 433.394531 311.03125 L 417.867188 331.402344 C 409.328125 342.597656 402.113281 351.886719 401.824219 352.0625 C 401.59375 352.234375 399.804688 352.0625 397.960938 351.714844 C 386.359375 349.578125 376.894531 360.890625 380.820312 372.316406 C 381.859375 375.546875 386.359375 380.394531 388.726562 381.03125 C 390.574219 381.492188 390.339844 379.992188 392.535156 410.40625 C 393.457031 423.734375 394.382812 435.796875 394.554688 437.238281 L 394.84375 439.835938 L 392.304688 440.875 C 389.359375 442.085938 385.378906 446.125 384.050781 449.242188 C 382.609375 452.476562 382.78125 458.304688 384.398438 461.59375 C 385.898438 464.707031 389.417969 468.113281 392.476562 469.441406 C 395.535156 470.769531 401.480469 470.652344 404.652344 469.210938 C 416.367188 463.84375 416.886719 447.394531 405.519531 441.625 C 403.613281 440.644531 402 439.835938 401.941406 439.835938 C 401.710938 439.777344 397.671875 384.492188 397.84375 383.398438 C 397.960938 382.648438 398.941406 381.953125 400.84375 381.203125 C 406.671875 379.011719 410.367188 373.585938 410.597656 367.007812 L 410.714844 363.199219 L 446.433594 349.753906 L 482.15625 336.304688 L 483.886719 337.75 C 490.410156 343.230469 498.949219 343.289062 504.835938 337.863281 C 513.03125 330.304688 510.839844 316.570312 500.738281 312.300781 L 498.71875 311.492188 L 498.777344 307.566406 C 498.777344 305.433594 499.238281 291.0625 499.757812 275.710938 L 500.738281 247.78125 L 503.277344 246.914062 C 506.796875 245.761719 510.953125 241.488281 512.164062 237.855469 C 513.667969 233.46875 513.433594 229.660156 511.414062 225.621094 C 508.644531 220.078125 504.085938 217.253906 497.621094 217.136719 L 493.988281 217.019531 L 474.941406 179.855469 L 477.019531 177.492188 C 481.234375 172.527344 481.984375 166.179688 479.039062 160.292969 C 476.90625 156.082031 474.078125 153.714844 469.402344 152.386719 C 464.902344 151.058594 460.574219 151.867188 455.667969 155.042969 C 454.570312 155.734375 451.917969 153.828125 418.15625 127.804688 L 381.859375 99.8125 L 381.859375 94.679688 C 381.859375 90.523438 381.628906 89.078125 380.589844 87.175781 C 376.894531 80.308594 369.507812 77.019531 362.238281 79.152344 C 359.640625 79.902344 358.253906 80.769531 355.890625 83.136719 C 354.214844 84.75 352.542969 87.058594 352.195312 88.273438 L 351.445312 90.40625 L 231.007812 90.40625 L 229.738281 87.523438 C 226.851562 80.769531 218.367188 76.84375 211.5 79.097656 Z M 220.273438 86.945312 C 223.910156 89.195312 225.121094 94.679688 222.871094 98.371094 C 221.3125 100.910156 217.328125 102.699219 214.445312 102.179688 C 211.675781 101.660156 208.617188 98.890625 207.808594 96.121094 C 206.882812 93.0625 207.867188 89.886719 210.460938 87.578125 C 212.195312 86.078125 213 85.789062 215.484375 85.789062 C 217.386719 85.789062 219.0625 86.195312 220.273438 86.945312 Z M 370.605469 86.65625 C 375.625 89.253906 376.433594 96.292969 372.105469 100.101562 C 369.394531 102.46875 366.679688 102.871094 363.390625 101.429688 C 355.253906 97.851562 357.621094 85.789062 366.449219 85.789062 C 367.835938 85.789062 369.683594 86.195312 370.605469 86.65625 Z M 352.023438 99.007812 L 352.601562 100.738281 L 316.011719 130.457031 C 295.871094 146.847656 279.195312 160.234375 278.847656 160.234375 C 278.558594 160.234375 278.269531 159.773438 278.269531 159.195312 C 278.269531 157.292969 276.597656 155.792969 268.980469 151 C 262.515625 146.90625 261.015625 146.210938 258.9375 146.210938 C 255.648438 146.210938 253.976562 147.367188 251.4375 151.578125 C 249.359375 155.042969 249.300781 155.042969 247.222656 154.753906 C 243.816406 154.175781 243.761719 154.117188 243.066406 150.597656 C 242.664062 148.75 242.027344 146.558594 241.566406 145.75 C 240.125 142.921875 236.71875 141.480469 233.140625 142.289062 C 231.0625 142.75 231.0625 142.75 230.429688 140.382812 C 230.140625 139.113281 228.292969 131.265625 226.332031 123.070312 L 222.8125 108.125 L 225.699219 105.585938 C 227.371094 104.085938 229.101562 101.949219 229.851562 100.21875 L 231.179688 97.332031 L 351.445312 97.332031 Z M 208.847656 107.664062 C 210.117188 108.296875 212.308594 108.988281 213.578125 109.21875 C 214.90625 109.453125 215.945312 109.683594 215.945312 109.855469 C 215.945312 109.972656 217.792969 117.703125 219.984375 127.050781 C 222.234375 136.402344 224.023438 144.132812 224.023438 144.25 C 224.023438 144.367188 222.640625 144.769531 220.90625 145.171875 C 214.964844 146.5 212.945312 149.675781 214.15625 155.5625 C 214.558594 157.351562 215.019531 159.253906 215.136719 159.773438 C 215.367188 160.464844 214.734375 161.214844 213.175781 162.253906 L 210.925781 163.753906 L 206.941406 161.390625 C 199.902344 157.292969 198.054688 158.15625 191.304688 168.835938 C 188.707031 173.105469 186.511719 177.144531 186.511719 177.894531 C 186.511719 178.644531 186.167969 179.28125 185.820312 179.28125 C 185.417969 179.222656 166.890625 174.605469 144.671875 169.007812 L 104.277344 158.734375 L 104.105469 157.003906 L 103.929688 155.273438 L 154.023438 129.824219 C 202.960938 104.949219 204.113281 104.371094 205.269531 105.410156 C 205.902344 105.988281 207.519531 106.96875 208.847656 107.664062 Z M 411.984375 132.015625 C 430.96875 146.617188 447.472656 159.425781 448.628906 160.410156 C 450.589844 162.082031 450.761719 162.429688 450.359375 164.273438 L 449.898438 166.292969 L 435.527344 168.777344 C 426.523438 170.335938 421.042969 171.085938 420.925781 170.679688 C 420.351562 168.949219 417.292969 165.257812 415.214844 163.699219 C 411.984375 161.332031 408.636719 160.234375 404.363281 160.234375 L 400.785156 160.234375 L 388.550781 133.402344 C 377.992188 110.375 376.03125 105.410156 377.242188 105.410156 C 377.355469 105.410156 392.9375 117.359375 411.984375 132.015625 Z M 357.621094 107.777344 C 357.390625 108.46875 352.3125 122.03125 346.367188 137.960938 L 335.519531 166.871094 L 331.535156 167.21875 C 327.265625 167.566406 325.015625 168.488281 321.839844 171.316406 C 318.957031 173.796875 317.050781 177.316406 316.53125 181.070312 L 316.070312 184.183594 L 305.21875 185.339844 C 299.21875 186.03125 294.257812 186.378906 294.140625 186.203125 C 294.023438 185.972656 293.503906 183.894531 292.929688 181.585938 C 291.3125 174.433594 288.542969 172.699219 281.269531 174.144531 C 277.175781 175.007812 277.058594 175.007812 276.308594 173.796875 C 275.558594 172.644531 277.230469 171.199219 316.011719 139.632812 C 338.230469 121.453125 356.8125 106.625 357.214844 106.625 C 357.734375 106.566406 357.851562 106.96875 357.621094 107.777344 Z M 382.03125 136.34375 L 394.324219 163.234375 L 392.304688 165.488281 C 389.878906 168.082031 388.148438 171.375 387.628906 174.144531 L 387.28125 176.164062 L 369.855469 178.066406 C 360.273438 179.164062 351.792969 180.03125 351.042969 180.085938 C 349.886719 180.144531 349.542969 179.683594 348.792969 177.605469 C 348.328125 176.164062 346.769531 173.855469 345.097656 172.125 L 342.269531 169.179688 L 353.40625 139.34375 L 364.546875 109.453125 L 369.796875 109.453125 Z M 236.488281 153.714844 C 237.527344 158.390625 238.96875 160.582031 241.453125 161.042969 C 249.53125 162.542969 250.511719 162.660156 252.128906 161.851562 C 252.992188 161.449219 254.78125 159.484375 256.109375 157.523438 C 257.378906 155.503906 258.589844 153.773438 258.824219 153.542969 C 259.167969 153.195312 271.34375 160.582031 271.34375 161.160156 C 271.34375 161.332031 270.304688 163.0625 269.035156 165.082031 C 265.863281 170.105469 265.921875 171.605469 269.671875 176.914062 C 273.421875 182.222656 274.230469 182.625 279.597656 181.644531 C 281.90625 181.242188 284.097656 180.835938 284.5625 180.835938 C 285.195312 180.722656 285.832031 182.570312 286.984375 187.359375 C 287.90625 190.996094 288.601562 194.285156 288.65625 194.574219 C 288.65625 194.917969 286.582031 195.609375 284.097656 196.1875 C 280.347656 197.054688 279.195312 197.574219 278.039062 198.957031 C 277.175781 199.9375 276.539062 201.382812 276.539062 202.246094 C 276.539062 203.054688 276.25 205.25 275.847656 207.039062 C 274.921875 211.539062 275.558594 212.691406 280.578125 215.925781 L 284.675781 218.578125 L 283.40625 220.714844 C 281.789062 223.3125 277.058594 230.871094 276.828125 231.101562 C 276.710938 231.21875 275.039062 230.238281 273.019531 228.910156 C 267.304688 225.214844 266.554688 225.214844 261.132812 229.140625 C 256.167969 232.71875 255.765625 233.238281 255.765625 235.949219 C 255.765625 237.335938 256.167969 239.875 256.628906 241.605469 C 257.089844 243.335938 257.378906 244.835938 257.265625 244.953125 C 256.746094 245.472656 243.011719 248.355469 242.78125 248.011719 C 242.664062 247.78125 242.144531 245.703125 241.566406 243.335938 C 240.296875 237.796875 239.257812 236.816406 233.429688 235.949219 C 225.464844 234.738281 225.179688 234.851562 221.425781 241.027344 C 219.40625 244.375 219.234375 244.492188 218.023438 243.742188 C 217.386719 243.335938 214.617188 241.546875 211.90625 239.875 C 209.191406 238.144531 206.882812 236.699219 206.769531 236.585938 C 206.652344 236.527344 207.578125 234.796875 208.847656 232.777344 C 212.597656 226.832031 212.539062 226.429688 207.75 219.503906 C 204.808594 215.175781 203.304688 214.65625 197.707031 215.925781 C 195.285156 216.445312 193.089844 216.675781 192.859375 216.386719 C 192.628906 216.15625 191.878906 213.328125 191.1875 210.152344 C 190.4375 206.980469 189.746094 203.980469 189.628906 203.402344 C 189.398438 202.652344 190.207031 202.246094 193.84375 201.441406 C 200.132812 199.9375 201.054688 198.902344 202.035156 192.207031 C 202.441406 189.320312 202.613281 186.378906 202.382812 185.683594 C 202.152344 184.933594 200.191406 183.261719 197.882812 181.761719 C 195.574219 180.316406 193.667969 179.046875 193.554688 178.992188 C 193.265625 178.703125 201.113281 166.582031 201.574219 166.582031 C 201.863281 166.582031 203.710938 167.621094 205.671875 168.890625 C 210.578125 172.007812 211.847656 171.949219 217.15625 168.140625 C 222.695312 164.160156 223.273438 163.003906 222.0625 158.214844 C 220.5625 152.273438 220.503906 152.386719 225.640625 151.289062 C 228.0625 150.769531 230.890625 150.136719 231.816406 149.847656 C 235.335938 148.867188 235.394531 148.980469 236.488281 153.714844 Z M 93.140625 151.347656 C 98.277344 154.003906 98.277344 163.003906 93.082031 165.71875 C 89.792969 167.390625 86.097656 167.046875 83.558594 164.851562 C 79.808594 161.503906 79.460938 156.714844 82.75 153.023438 C 85.464844 149.90625 89.15625 149.328125 93.140625 151.347656 Z M 471.019531 161.101562 C 474.710938 164.621094 474.597656 170.046875 470.789062 173.394531 C 468.074219 175.757812 465.363281 176.164062 462.074219 174.71875 C 455.957031 172.007812 455.378906 163.988281 460.976562 160.121094 C 463.574219 158.390625 468.710938 158.90625 471.019531 161.101562 Z M 144.039062 176.105469 C 191.246094 188.050781 194.59375 188.917969 194.996094 189.320312 C 195.167969 189.492188 195.054688 190.589844 194.765625 191.746094 C 194.304688 193.820312 194.128906 193.996094 190.550781 194.917969 C 185.359375 196.246094 184.953125 196.476562 183.628906 198.613281 C 182.300781 200.804688 182.183594 203.054688 183.339844 207.730469 C 183.914062 210.269531 183.972656 211.136719 183.453125 211.308594 C 183.050781 211.480469 179.875 212.578125 176.296875 213.847656 L 169.894531 216.097656 L 168.507812 214.65625 C 164.699219 210.558594 157.660156 208.769531 152.347656 210.558594 L 149.808594 211.421875 L 139.710938 201.902344 C 134.226562 196.648438 124.878906 187.761719 118.992188 182.222656 C 113.105469 176.625 106.875 170.679688 105.144531 169.066406 C 102.835938 166.871094 102.257812 166.007812 103.066406 166.007812 C 103.640625 166.007812 122.050781 170.566406 144.039062 176.105469 Z M 408.980469 168.257812 C 413.195312 170.160156 415.042969 173.21875 415.042969 178.011719 C 414.984375 183.722656 410.65625 187.9375 404.769531 187.9375 C 400.09375 187.9375 396.976562 185.859375 395.132812 181.472656 C 393.917969 178.527344 394.035156 176.105469 395.476562 173.105469 C 397.960938 167.96875 403.789062 165.890625 408.980469 168.257812 Z M 120.320312 193.246094 C 132.785156 205.019531 143.289062 214.945312 143.691406 215.347656 C 144.269531 215.867188 144.210938 216.5 143.289062 218.578125 C 142.710938 219.964844 142.019531 222.214844 141.789062 223.542969 C 141.441406 225.910156 141.382812 225.964844 137.285156 227.351562 C 134.980469 228.160156 126.726562 230.988281 118.933594 233.699219 L 104.679688 238.605469 L 102.546875 236.355469 C 100.066406 233.871094 97.46875 232.429688 94.410156 231.96875 L 92.445312 231.621094 L 92.445312 173.683594 L 94.640625 172.757812 C 95.792969 172.296875 97.007812 171.894531 97.238281 171.835938 C 97.527344 171.777344 107.914062 181.414062 120.320312 193.246094 Z M 452.148438 175.183594 C 454.746094 179.625 460.574219 182.742188 466.171875 182.742188 L 468.652344 182.742188 L 478.175781 201.726562 L 487.695312 220.714844 L 486.484375 221.753906 C 484.636719 223.425781 482.5625 228.332031 482.5625 231.042969 C 482.5625 233.351562 482.445312 233.527344 480.425781 234.046875 C 479.214844 234.390625 465.652344 238.027344 450.242188 242.183594 C 434.894531 246.28125 421.964844 249.683594 421.621094 249.683594 C 421.214844 249.683594 420.582031 248.242188 420.175781 246.511719 C 419.65625 244.027344 418.964844 242.875 417.464844 241.488281 C 415.5625 239.875 415.214844 239.757812 412.503906 240.105469 C 410.886719 240.277344 409.039062 240.625 408.347656 240.796875 C 407.480469 241.027344 406.902344 240.683594 406.210938 239.644531 C 405.289062 238.257812 405.289062 238.085938 406.960938 235.429688 C 408.925781 232.371094 409.210938 229.140625 407.769531 226.890625 C 407.308594 226.140625 404.308594 223.886719 401.132812 221.925781 C 398.015625 219.964844 395.421875 218.175781 395.476562 218.003906 C 395.476562 217.828125 397.09375 212.75 399.054688 206.75 L 402.632812 195.785156 L 406.730469 195.089844 C 411.289062 194.339844 413.539062 193.359375 416.484375 190.707031 C 419.195312 188.398438 421.214844 184.878906 421.964844 181.125 C 422.371094 179.511719 422.832031 178.125 423.0625 178.125 C 423.292969 178.125 428.488281 177.257812 434.664062 176.164062 C 440.835938 175.066406 446.550781 174.027344 447.359375 173.914062 C 450.53125 173.335938 451.167969 173.507812 452.148438 175.183594 Z M 338.171875 175.585938 C 343.945312 178.992188 344.464844 186.667969 339.269531 191.226562 C 334.363281 195.496094 326.628906 193.648438 324.089844 187.53125 C 320.457031 178.875 329.976562 170.796875 338.171875 175.585938 Z M 388.957031 185.222656 C 389.648438 187.1875 392.476562 190.53125 394.726562 192.089844 L 396.054688 193.015625 L 391.957031 205.882812 C 389.648438 212.980469 386.996094 220.136719 386.011719 221.8125 C 384.457031 224.464844 384.050781 224.8125 382.78125 224.464844 C 380.53125 223.945312 380.53125 223.886719 380.070312 220.945312 C 379.492188 217.136719 376.835938 214.480469 373.546875 214.480469 C 370.605469 214.480469 360.449219 216.675781 358.3125 217.769531 C 355.832031 218.984375 354.792969 221.984375 355.542969 225.5625 C 356.410156 229.488281 356.351562 229.773438 354.734375 230.640625 C 353.464844 231.332031 353.0625 231.21875 350.925781 229.832031 C 347.867188 227.753906 345.328125 227.351562 343.019531 228.5625 C 340.421875 229.890625 333.613281 240.507812 333.210938 243.742188 C 332.804688 247.320312 333.613281 248.300781 339.902344 252.339844 C 340.019531 252.453125 339.960938 253.261719 339.730469 254.242188 C 339.382812 255.800781 339.039062 256.03125 336.269531 256.609375 C 332.804688 257.300781 330.441406 259.148438 329.863281 261.628906 C 329.402344 263.363281 331.476562 274.5 332.804688 277.789062 C 334.191406 281.136719 337.539062 282 343.597656 280.558594 C 344.578125 280.328125 345.214844 280.675781 345.90625 281.65625 C 346.828125 282.984375 346.828125 283.097656 345.269531 285.578125 C 341.691406 291.234375 342.441406 293.773438 349.078125 298.160156 C 351.5625 299.832031 353.8125 301.390625 354.042969 301.621094 C 354.332031 301.855469 349.714844 311.835938 343.828125 323.78125 L 333.210938 345.480469 L 330.09375 345.480469 C 325.878906 345.480469 323.167969 346.347656 320.226562 348.597656 L 317.6875 350.558594 L 303.027344 343.75 C 290.792969 338.039062 288.425781 336.769531 288.601562 335.84375 C 288.714844 335.265625 288.890625 332.613281 288.890625 329.898438 C 288.945312 325.570312 288.773438 324.648438 287.386719 322.28125 L 285.886719 319.570312 L 330.324219 200.804688 L 334.25 200.515625 C 340.941406 199.996094 345.617188 196.707031 348.503906 190.359375 C 349.367188 188.511719 350.292969 187.359375 350.867188 187.359375 C 351.386719 187.300781 359.121094 186.433594 368.007812 185.398438 C 389.1875 182.855469 388.089844 182.855469 388.957031 185.222656 Z M 318.089844 191.976562 C 318.089844 192.320312 319.359375 193.878906 320.917969 195.4375 L 323.746094 198.265625 L 302.160156 255.859375 C 290.273438 287.542969 280.464844 313.742188 280.347656 314.144531 C 280.117188 314.609375 279.480469 314.609375 277.867188 313.972656 C 276.65625 313.570312 274.691406 313.222656 273.539062 313.164062 C 272.328125 313.164062 271.34375 313.050781 271.34375 312.875 C 271.34375 312.761719 268.230469 299.546875 264.476562 283.617188 C 260.667969 267.632812 257.496094 254.070312 257.378906 253.492188 C 257.265625 252.683594 257.667969 252.28125 258.996094 251.878906 C 261.417969 251.242188 263.726562 248.820312 264.191406 246.453125 C 264.363281 245.355469 264.132812 242.757812 263.671875 240.625 C 263.207031 238.429688 262.804688 236.699219 262.863281 236.699219 C 262.917969 236.640625 263.902344 235.949219 264.996094 235.140625 L 267.074219 233.640625 L 270.769531 235.890625 C 275.730469 238.894531 278.558594 238.949219 281.386719 236.238281 C 282.484375 235.257812 285.195312 231.390625 287.445312 227.753906 C 290.964844 222.101562 291.542969 220.714844 291.542969 218.523438 C 291.542969 215.230469 290.5625 213.847656 286.464844 211.25 C 284.675781 210.097656 283.117188 209.058594 283.003906 209 C 282.886719 208.882812 283.003906 207.671875 283.175781 206.230469 L 283.578125 203.632812 L 287.734375 202.59375 C 292.871094 201.324219 295.582031 199.015625 295.582031 195.785156 C 295.582031 194.628906 295.640625 193.707031 295.757812 193.648438 C 295.8125 193.648438 299.621094 193.1875 304.238281 192.609375 C 314.164062 191.339844 318.089844 191.167969 318.089844 191.976562 Z M 160.949219 217.769531 C 164.757812 219.558594 166.488281 224.175781 164.871094 228.21875 C 162.507812 234.160156 155.292969 235.257812 150.789062 230.410156 C 148.828125 228.332031 148.484375 223.601562 150.097656 220.945312 C 152.523438 217.078125 156.90625 215.808594 160.949219 217.769531 Z M 186.800781 220.425781 C 187.4375 221.464844 188.9375 222.734375 190.148438 223.3125 C 192.226562 224.351562 192.515625 224.351562 196.667969 223.425781 C 200.824219 222.503906 201.054688 222.503906 201.804688 223.542969 C 204.054688 226.542969 204.054688 226.890625 201.863281 230.523438 C 200.246094 233.179688 199.785156 234.566406 199.785156 236.699219 C 199.785156 239.179688 200.015625 239.699219 201.980469 241.546875 C 203.25 242.703125 207.171875 245.414062 210.808594 247.550781 C 216.808594 251.128906 217.617188 251.472656 219.867188 251.242188 C 222.753906 250.953125 223.964844 249.972656 226.96875 245.53125 C 229.160156 242.296875 229.160156 242.296875 231.351562 242.816406 C 232.566406 243.105469 233.71875 243.335938 233.949219 243.335938 C 234.121094 243.335938 234.699219 245.011719 235.160156 247.085938 C 236.199219 251.648438 237.238281 253.378906 239.777344 254.648438 C 241.394531 255.511719 242.144531 255.570312 245.839844 254.9375 C 248.203125 254.53125 250.167969 254.300781 250.222656 254.417969 C 250.28125 254.53125 253.570312 268.210938 257.496094 284.773438 C 263.382812 309.933594 264.476562 315.070312 263.785156 315.53125 C 263.324219 315.820312 262.574219 316.339844 262.113281 316.570312 C 260.84375 317.320312 171.738281 232.777344 171.914062 230.988281 C 172.027344 230.351562 172.257812 228.160156 172.433594 226.195312 C 172.835938 222.15625 172.199219 222.675781 180.742188 219.734375 C 185.011719 218.234375 185.472656 218.289062 186.800781 220.425781 Z M 373.261719 222.964844 C 374.816406 229.832031 375.28125 230.410156 380.414062 231.277344 C 382.433594 231.5625 384.28125 231.96875 384.511719 232.140625 C 385.726562 232.890625 389.015625 230.582031 390.6875 227.8125 L 392.535156 224.8125 L 395.882812 226.945312 C 397.671875 228.101562 399.632812 229.371094 400.210938 229.71875 C 401.539062 230.523438 401.480469 230.699219 399.460938 233.988281 C 397.09375 237.855469 397.210938 239.238281 400.382812 243.742188 C 403.5 248.070312 405 248.875 408.519531 248.011719 C 412.964844 246.855469 413.019531 246.914062 414.058594 251.703125 C 414.636719 254.128906 415.042969 256.4375 415.042969 256.898438 C 415.042969 257.417969 413.886719 257.9375 411.808594 258.339844 C 407.308594 259.265625 406.097656 260.648438 405.230469 265.785156 C 404.882812 268.035156 404.710938 270.574219 404.882812 271.382812 C 405.230469 272.59375 407.421875 274.613281 410.769531 276.578125 C 411.695312 277.152344 411.578125 277.558594 408.980469 281.597656 C 407.421875 284.023438 406.039062 286.042969 405.867188 286.042969 C 405.691406 286.042969 404.363281 285.234375 402.921875 284.308594 C 399.285156 281.886719 397.324219 282.058594 393.054688 284.945312 C 388.726562 287.945312 388.207031 288.984375 388.839844 293.371094 C 389.070312 295.21875 389.304688 296.949219 389.359375 297.238281 C 389.359375 297.8125 379.953125 300.007812 379.261719 299.601562 C 379.03125 299.429688 378.683594 298.277344 378.453125 297.0625 C 377.589844 291.695312 376.085938 290.425781 369.683594 289.792969 C 364.71875 289.273438 363.851562 289.675781 361.371094 293.542969 C 360.273438 295.273438 359.238281 296.257812 358.832031 296.023438 C 358.484375 295.792969 356.410156 294.523438 354.273438 293.140625 L 350.347656 290.65625 L 352.136719 288.0625 C 354.964844 283.90625 354.964844 282.636719 352.136719 278.25 C 349.023438 273.519531 347.175781 272.421875 343.710938 273.289062 C 339.097656 274.441406 339.039062 274.441406 337.941406 269.421875 C 337.421875 266.996094 336.960938 264.746094 336.902344 264.457031 C 336.902344 264.226562 338.519531 263.535156 340.539062 262.957031 C 342.5 262.378906 344.578125 261.574219 345.039062 261.054688 C 346.136719 259.957031 347.636719 252.222656 347.175781 250.089844 C 346.945312 248.933594 345.90625 247.839844 343.710938 246.394531 C 341.980469 245.242188 340.597656 244.203125 340.597656 244.027344 C 340.597656 243.566406 345.847656 235.257812 346.078125 235.257812 C 346.25 235.257812 347.578125 236.007812 349.078125 236.988281 C 352.945312 239.46875 354.851562 239.296875 359.410156 236.066406 C 363.621094 233.0625 364.085938 231.96875 363.160156 227.351562 C 362.8125 225.5625 362.640625 224.003906 362.8125 223.832031 C 363.101562 223.542969 370.953125 221.582031 372.164062 221.464844 C 372.566406 221.40625 373.027344 222.101562 373.261719 222.964844 Z M 501.605469 225.160156 C 506.855469 227.871094 507.605469 234.621094 503.046875 238.664062 C 500.335938 241.027344 497.796875 241.433594 494.449219 239.988281 C 486.425781 236.410156 488.679688 224.292969 497.449219 224.292969 C 498.835938 224.292969 500.679688 224.695312 501.605469 225.160156 Z M 145.425781 235.199219 C 149.578125 240.335938 157.542969 241.953125 163.949219 239.007812 L 167.066406 237.566406 L 171.164062 241.488281 C 180.570312 250.492188 252.1875 318.300781 254.496094 320.320312 C 255.820312 321.53125 256.917969 322.800781 256.917969 323.207031 C 256.859375 325.515625 256.226562 325.398438 222.984375 316.339844 C 204.808594 311.433594 189.859375 307.394531 189.6875 307.394531 C 189.515625 307.394531 189.398438 305.664062 189.398438 303.46875 C 189.339844 295.101562 183.742188 289.101562 175.375 288.464844 C 170.699219 288.117188 167.351562 289.214844 164.007812 292.214844 L 161.121094 294.753906 L 133.304688 274.730469 C 117.953125 263.707031 105.375 254.589844 105.257812 254.53125 C 105.144531 254.472656 105.316406 253.839844 105.71875 253.203125 C 106.066406 252.511719 106.527344 250.492188 106.757812 248.644531 L 107.164062 245.355469 L 124.765625 239.179688 C 134.460938 235.777344 142.652344 233.007812 143 233.007812 C 143.347656 232.949219 144.441406 233.988281 145.425781 235.199219 Z M 95.910156 239.988281 C 98.621094 241.835938 100.066406 244.78125 99.777344 247.78125 C 98.96875 255.859375 88.636719 258.167969 84.308594 251.242188 C 82.808594 248.875 83.039062 243.972656 84.714844 242.125 C 87.832031 238.546875 92.503906 237.679688 95.910156 239.988281 Z M 485.15625 241.546875 C 485.390625 242.414062 482.332031 246.855469 472.402344 259.898438 C 465.191406 269.363281 458.035156 278.65625 456.535156 280.617188 L 453.765625 284.136719 L 450.707031 283.328125 C 444.875 281.769531 437.722656 283.90625 433.96875 288.351562 L 432.066406 290.542969 L 424.449219 286.5625 L 416.832031 282.519531 L 417.925781 280.675781 C 420.175781 277.039062 419.023438 273.34375 414.753906 270.691406 C 412.445312 269.246094 412.15625 268.785156 412.269531 267.285156 C 412.445312 265.726562 412.734375 265.496094 415.617188 264.804688 C 419.371094 263.882812 421.679688 261.917969 422.371094 258.976562 L 422.890625 256.898438 L 443.605469 251.300781 C 455.035156 248.183594 468.539062 244.546875 473.617188 243.105469 C 484.523438 240.164062 484.695312 240.105469 485.15625 241.546875 Z M 492.890625 247.320312 C 493.582031 247.78125 493.582031 251.933594 492.71875 276.289062 C 492.199219 291.984375 491.792969 306.183594 491.792969 307.855469 L 491.792969 310.914062 L 489.199219 312.011719 C 487.753906 312.644531 485.621094 313.855469 484.464844 314.722656 L 482.386719 316.339844 L 472.402344 311.144531 L 462.421875 305.949219 L 462.824219 304.21875 C 463.804688 300.066406 463.226562 295.503906 461.382812 291.871094 L 459.59375 288.40625 L 475.460938 267.574219 C 484.175781 256.148438 491.449219 246.800781 491.679688 246.800781 C 491.910156 246.800781 492.429688 247.03125 492.890625 247.320312 Z M 450.761719 290.945312 C 454.570312 292.910156 456.996094 297.757812 456.074219 301.679688 C 454.339844 309.355469 445.164062 312.066406 439.625 306.585938 C 435.066406 301.96875 436.105469 294.699219 441.816406 291.175781 C 444.011719 289.851562 448.453125 289.734375 450.761719 290.945312 Z M 178.316406 296.429688 C 183.398438 299.546875 183.859375 306.585938 179.242188 310.222656 C 175.722656 312.992188 170.355469 312.300781 167.640625 308.722656 C 165.566406 306.007812 165.390625 301.449219 167.238281 298.910156 C 169.777344 295.449219 174.796875 294.292969 178.316406 296.429688 Z M 467.671875 316.683594 C 480.425781 323.089844 479.445312 322.226562 479.097656 326.4375 L 478.808594 330.015625 L 443.664062 343.230469 C 424.332031 350.503906 408.40625 356.332031 408.289062 356.214844 C 408.117188 356.101562 415.042969 346.75 423.640625 335.5 L 439.277344 315.011719 L 441.761719 315.878906 C 445.164062 317.089844 450.359375 316.570312 454.109375 314.722656 C 455.726562 313.855469 457.226562 312.933594 457.457031 312.585938 C 457.628906 312.300781 457.917969 312.011719 458.09375 312.011719 C 458.207031 312.011719 462.535156 314.089844 467.671875 316.683594 Z M 498.949219 319.453125 C 502.757812 321.996094 503.914062 327.074219 501.605469 330.9375 C 500.046875 333.476562 496.066406 335.265625 493.179688 334.746094 C 487.410156 333.652344 484.351562 326.785156 487.523438 321.996094 C 489.773438 318.53125 495.546875 317.261719 498.949219 319.453125 Z M 276.25 321.1875 C 281.734375 323.726562 283.695312 328.863281 281.214844 334.285156 C 279.769531 337.460938 277.117188 339.308594 273.363281 339.59375 C 264.246094 340.347656 259.285156 330.304688 265.402344 323.496094 C 268.460938 320.089844 272.210938 319.28125 276.25 321.1875 Z M 333.441406 353.332031 C 337.191406 355.121094 338.980469 359.679688 337.421875 363.660156 C 335.054688 369.949219 327.554688 370.988281 323.054688 365.679688 C 321.03125 363.257812 320.917969 358.582031 322.820312 356.15625 C 325.648438 352.578125 329.574219 351.542969 333.441406 353.332031 Z M 399.691406 359.851562 C 403.5 362.390625 404.652344 367.46875 402.34375 371.335938 C 400.785156 373.875 396.804688 375.664062 393.917969 375.144531 C 388.148438 374.046875 385.089844 367.179688 388.265625 362.390625 C 390.515625 358.929688 396.285156 357.660156 399.691406 359.851562 Z M 366.566406 442.144531 C 368.585938 443.183594 370.027344 445.722656 370.027344 448.261719 C 370.027344 449.53125 369.449219 450.628906 368.066406 452.011719 C 366.449219 453.628906 365.640625 453.976562 363.679688 453.976562 C 359.0625 453.976562 355.773438 448.664062 357.96875 444.683594 C 358.773438 443.183594 361.890625 441.277344 363.566406 441.277344 C 364.316406 441.277344 365.640625 441.683594 366.566406 442.144531 Z M 402.863281 448.144531 C 408.058594 451.839844 408.117188 458.476562 402.980469 461.882812 C 400.671875 463.4375 396.804688 463.613281 394.207031 462.34375 C 390.398438 460.324219 389.015625 454.550781 391.378906 450.628906 C 393.6875 446.820312 399.402344 445.605469 402.863281 448.144531 Z M 402.863281 448.144531 " fill-opacity="1" fill-rule="nonzero"/><path fill="#ffffff" d="M 234.410156 172.410156 C 217.675781 175.296875 207.691406 194.457031 215.078125 209.578125 C 222.0625 223.886719 240.414062 228.792969 253.800781 219.90625 C 257.609375 217.367188 260.496094 213.847656 262.863281 208.882812 C 264.59375 205.132812 264.707031 204.613281 264.707031 198.035156 C 264.707031 191.457031 264.59375 190.9375 262.917969 187.359375 C 260.726562 182.800781 257.957031 179.566406 253.917969 176.796875 C 248.320312 172.929688 240.992188 171.316406 234.410156 172.410156 Z M 247.394531 181.125 C 250.917969 182.972656 254.839844 187.070312 256.515625 190.707031 C 257.496094 192.785156 257.785156 194.515625 257.785156 198.324219 C 257.785156 202.535156 257.554688 203.691406 256.167969 206.519531 C 250.28125 218.464844 234.410156 221.003906 225.179688 211.539062 C 221.773438 208.019531 220.332031 204.554688 220.101562 199.363281 C 219.636719 190.417969 223.964844 183.78125 232.390625 180.261719 C 235.96875 178.761719 243.644531 179.222656 247.394531 181.125 Z M 247.394531 181.125 " fill-opacity="1" fill-rule="nonzero"/><path fill="#ffffff" d="M 370.894531 239.46875 C 357.214844 243.046875 350.234375 257.1875 356.121094 269.59375 C 361.371094 280.730469 375.046875 285.003906 386.300781 279 C 397.785156 272.882812 401.304688 257.9375 393.6875 247.433594 C 391.554688 244.492188 387.28125 241.375 383.878906 240.164062 C 380.300781 238.894531 374.355469 238.605469 370.894531 239.46875 Z M 382.203125 248.355469 C 389.707031 252.167969 392.1875 261.285156 387.628906 268.265625 C 384.917969 272.363281 380.761719 274.5 375.566406 274.5 C 368.125 274.441406 361.949219 267.804688 361.949219 259.957031 C 361.949219 255.457031 367.085938 248.703125 371.472656 247.433594 C 375.046875 246.394531 378.914062 246.742188 382.203125 248.355469 Z M 382.203125 248.355469 " fill-opacity="1" fill-rule="nonzero"/></svg>