<svg xmlns="http://www.w3.org/2000/svg" xmlns:xlink="http://www.w3.org/1999/xlink" width="793" zoomAndPan="magnify" viewBox="0 0 594.95996 842.24997" height="1122" preserveAspectRatio="xMidYMid meet" version="1.0"><defs><clipPath id="97b1bbead8"><path d="M 139 142 L 206 142 L 206 450.625 L 139 450.625 Z M 139 142 " clip-rule="nonzero"/></clipPath><clipPath id="d214feda67"><path d="M 218 208 L 285 208 L 285 450.625 L 218 450.625 Z M 218 208 " clip-rule="nonzero"/></clipPath><clipPath id="0719aa003e"><path d="M 59.71875 216 L 126 216 L 126 450.625 L 59.71875 450.625 Z M 59.71875 216 " clip-rule="nonzero"/></clipPath><clipPath id="5121f87440"><path d="M 298 290 L 365 290 L 365 450.625 L 298 450.625 Z M 298 290 " clip-rule="nonzero"/></clipPath><clipPath id="de007c1cfc"><path d="M 377 250 L 444 250 L 444 450.625 L 377 450.625 Z M 377 250 " clip-rule="nonzero"/></clipPath><clipPath id="59f0d6cb92"><path d="M 85 59.476562 L 534 59.476562 L 534 412 L 85 412 Z M 85 59.476562 " clip-rule="nonzero"/></clipPath></defs><g clip-path="url(#97b1bbead8)"><path fill="#40f01a" d="M 148.6875 151.609375 C 148.496094 151.609375 148.320312 151.785156 148.320312 151.96875 L 148.320312 441.132812 C 148.320312 441.324219 148.496094 441.5 148.6875 441.5 L 195.917969 441.5 C 196.109375 441.5 196.285156 441.324219 196.285156 441.132812 L 196.285156 151.96875 C 196.285156 151.785156 196.109375 151.609375 195.917969 151.609375 Z M 195.917969 450.484375 L 148.6875 450.484375 C 143.535156 450.484375 139.335938 446.285156 139.335938 441.132812 L 139.335938 151.96875 C 139.335938 146.816406 143.535156 142.625 148.6875 142.625 L 195.917969 142.625 C 201.070312 142.625 205.269531 146.816406 205.269531 151.96875 L 205.269531 441.132812 C 205.269531 446.285156 201.070312 450.484375 195.917969 450.484375 " fill-opacity="1" fill-rule="nonzero"/></g><g clip-path="url(#d214feda67)"><path fill="#40f01a" d="M 227.800781 441.5 L 275.75 441.5 L 275.75 217.359375 L 227.800781 217.359375 Z M 276.351562 450.484375 L 227.195312 450.484375 C 222.578125 450.484375 218.816406 446.71875 218.816406 442.101562 L 218.816406 216.757812 C 218.816406 212.136719 222.578125 208.375 227.195312 208.375 L 276.351562 208.375 C 280.972656 208.375 284.734375 212.136719 284.734375 216.757812 L 284.734375 442.101562 C 284.734375 446.71875 280.972656 450.484375 276.351562 450.484375 " fill-opacity="1" fill-rule="nonzero"/></g><g clip-path="url(#0719aa003e)"><path fill="#40f01a" d="M 68.84375 441.5 L 116.796875 441.5 L 116.796875 225.867188 L 68.84375 225.867188 Z M 117.402344 450.484375 L 68.238281 450.484375 C 63.613281 450.484375 59.859375 446.71875 59.859375 442.101562 L 59.859375 225.261719 C 59.859375 220.644531 63.613281 216.882812 68.238281 216.882812 L 117.402344 216.882812 C 122.019531 216.882812 125.78125 220.644531 125.78125 225.261719 L 125.78125 442.101562 C 125.78125 446.71875 122.019531 450.484375 117.402344 450.484375 " fill-opacity="1" fill-rule="nonzero"/></g><g clip-path="url(#5121f87440)"><path fill="#40f01a" d="M 307.238281 441.5 L 355.199219 441.5 L 355.199219 299.308594 L 307.238281 299.308594 Z M 356.238281 450.484375 L 306.199219 450.484375 C 301.8125 450.484375 298.253906 446.917969 298.253906 442.542969 L 298.253906 298.269531 C 298.253906 293.890625 301.8125 290.324219 306.199219 290.324219 L 356.238281 290.324219 C 360.625 290.324219 364.183594 293.890625 364.183594 298.269531 L 364.183594 442.542969 C 364.183594 446.917969 360.625 450.484375 356.238281 450.484375 " fill-opacity="1" fill-rule="nonzero"/></g><g clip-path="url(#de007c1cfc)"><path fill="#40f01a" d="M 435.308594 450.484375 L 386.160156 450.484375 C 381.535156 450.484375 377.78125 446.71875 377.78125 442.101562 L 377.78125 254.710938 C 377.78125 252.230469 379.789062 250.21875 382.273438 250.21875 C 384.75 250.21875 386.765625 252.230469 386.765625 254.710938 L 386.765625 441.5 L 434.707031 441.5 L 434.707031 290.929688 C 434.707031 288.449219 436.722656 286.4375 439.199219 286.4375 C 441.683594 286.4375 443.691406 288.449219 443.691406 290.929688 L 443.691406 442.101562 C 443.691406 446.71875 439.9375 450.484375 435.308594 450.484375 " fill-opacity="1" fill-rule="nonzero"/></g><path fill="#ffffff" d="M 410.3125 234.339844 C 392.332031 234.339844 376.160156 224.363281 368.109375 208.320312 C 356.433594 185.058594 365.855469 156.636719 389.109375 144.96875 C 395.75 141.636719 402.859375 139.945312 410.238281 139.945312 C 428.21875 139.945312 444.398438 149.917969 452.449219 165.972656 C 464.125 189.226562 454.695312 217.632812 431.449219 229.3125 C 424.800781 232.648438 417.691406 234.339844 410.3125 234.339844 Z M 460.488281 161.941406 C 450.886719 142.828125 431.632812 130.960938 410.238281 130.960938 C 401.449219 130.960938 392.984375 132.96875 385.082031 136.933594 C 357.394531 150.832031 346.179688 184.65625 360.078125 212.339844 C 369.664062 231.453125 388.917969 243.324219 410.3125 243.324219 C 419.101562 243.324219 427.566406 241.308594 435.476562 237.34375 C 463.15625 223.445312 474.371094 189.625 460.488281 161.941406 " fill-opacity="1" fill-rule="nonzero"/><g clip-path="url(#59f0d6cb92)"><path fill="#ffffff" d="M 521.09375 397.726562 L 512.3125 402.132812 C 511.519531 402.535156 510.667969 402.730469 509.785156 402.730469 C 507.628906 402.730469 505.621094 401.507812 504.667969 399.601562 L 454.015625 298.707031 C 452.613281 295.890625 453.75 292.464844 456.550781 291.0625 L 465.339844 286.648438 C 466.132812 286.253906 466.980469 286.050781 467.863281 286.050781 C 470.019531 286.050781 472.035156 287.277344 472.988281 289.179688 L 523.632812 390.082031 C 525.042969 392.890625 523.90625 396.324219 521.09375 397.726562 Z M 439.703125 282.40625 L 439.339844 281.683594 C 437.929688 278.875 439.070312 275.445312 441.871094 274.039062 L 460.472656 264.703125 C 461.261719 264.304688 462.109375 264.109375 462.992188 264.109375 C 465.15625 264.109375 467.164062 265.335938 468.117188 267.238281 L 468.484375 267.960938 C 469.15625 269.308594 469.269531 270.855469 468.792969 272.304688 C 468.308594 273.757812 467.296875 274.925781 465.949219 275.605469 L 447.347656 284.941406 C 446.5625 285.335938 445.707031 285.539062 444.820312 285.539062 C 442.671875 285.539062 440.660156 284.308594 439.703125 282.40625 Z M 444.8125 255.957031 C 444.949219 255.886719 445.082031 255.8125 445.207031 255.75 L 448.300781 254.191406 L 450.648438 258.871094 L 443.066406 262.675781 L 440.722656 258 L 444.476562 256.113281 C 444.589844 256.058594 444.707031 256.015625 444.8125 255.957031 Z M 349.5 217.648438 C 332.679688 184.128906 346.257812 143.171875 379.765625 126.355469 C 389.339844 121.554688 399.582031 119.113281 410.210938 119.113281 C 436.125 119.113281 459.441406 133.488281 471.058594 156.636719 C 479.207031 172.863281 480.550781 191.304688 474.828125 208.550781 C 469.171875 225.621094 457.253906 239.484375 441.269531 247.667969 L 440.371094 248.117188 C 430.921875 252.785156 420.820312 255.164062 410.34375 255.164062 C 384.425781 255.164062 361.109375 240.789062 349.5 217.648438 Z M 531.65625 386.054688 L 481.019531 285.152344 C 479.714844 282.554688 477.714844 280.484375 475.3125 279.082031 C 476.160156 277.894531 476.84375 276.558594 477.3125 275.128906 C 478.554688 271.402344 478.261719 267.421875 476.511719 263.941406 L 476.148438 263.210938 C 473.640625 258.21875 468.601562 255.125 462.992188 255.125 C 461.679688 255.125 460.367188 255.328125 459.097656 255.679688 L 455.847656 249.199219 C 468.664062 239.820312 478.253906 226.757812 483.355469 211.378906 C 489.828125 191.859375 488.3125 170.984375 479.082031 152.605469 C 465.933594 126.40625 439.550781 110.125 410.210938 110.125 C 398.171875 110.125 386.566406 112.886719 375.738281 118.324219 C 337.796875 137.363281 322.425781 183.730469 341.46875 221.675781 C 342.425781 223.585938 343.46875 225.425781 344.566406 227.222656 L 329.121094 254.625 L 297.957031 178.550781 C 297.269531 176.867188 295.628906 175.765625 293.800781 175.765625 L 256.355469 175.765625 L 176.097656 61.390625 C 175.316406 60.277344 174.074219 59.574219 172.714844 59.488281 C 171.34375 59.398438 170.039062 59.933594 169.113281 60.929688 L 86.496094 150.691406 C 84.8125 152.515625 84.929688 155.359375 86.753906 157.035156 C 88.585938 158.714844 91.421875 158.601562 93.109375 156.769531 L 171.949219 71.113281 L 250.347656 182.832031 C 251.1875 184.03125 252.558594 184.75 254.023438 184.75 L 290.785156 184.75 L 324.320312 266.613281 C 324.980469 268.214844 326.484375 269.289062 328.203125 269.394531 C 328.292969 269.40625 328.386719 269.40625 328.484375 269.40625 C 330.089844 269.40625 331.59375 268.539062 332.394531 267.121094 L 350.265625 235.414062 C 364.6875 253.4375 386.546875 264.148438 410.34375 264.148438 C 417.8125 264.148438 425.109375 263.082031 432.160156 260.976562 L 435.441406 267.535156 C 430.011719 271.738281 428.113281 279.347656 431.308594 285.714844 L 431.675781 286.4375 C 434.128906 291.34375 439.042969 294.394531 444.539062 294.507812 C 444.222656 297.238281 444.667969 300.089844 445.984375 302.734375 L 496.636719 403.628906 C 499.144531 408.621094 504.175781 411.714844 509.785156 411.714844 C 512.050781 411.714844 514.320312 411.183594 516.339844 410.171875 L 525.128906 405.757812 C 532.359375 402.121094 535.292969 393.28125 531.65625 386.054688 " fill-opacity="1" fill-rule="nonzero"/></g></svg>