<svg xmlns="http://www.w3.org/2000/svg" xmlns:xlink="http://www.w3.org/1999/xlink" width="793" zoomAndPan="magnify" viewBox="0 0 594.95996 842.24997" height="1122" preserveAspectRatio="xMidYMid meet" version="1.0"><defs><clipPath id="c8d5d622ed"><path d="M 0.246094 0 L 594.675781 0 L 594.675781 594.96875 L 0.246094 594.96875 Z M 0.246094 0 " clip-rule="nonzero"/></clipPath></defs><g clip-path="url(#c8d5d622ed)"><path fill="#000000" d="M 595.214844 297.484375 C 595.214844 302.355469 595.09375 307.21875 594.855469 312.082031 C 594.617188 316.945312 594.257812 321.796875 593.78125 326.644531 C 593.304688 331.488281 592.710938 336.320312 591.996094 341.136719 C 591.28125 345.949219 590.449219 350.746094 589.5 355.523438 C 588.550781 360.296875 587.484375 365.046875 586.300781 369.769531 C 585.117188 374.492188 583.820312 379.179688 582.40625 383.839844 C 580.992188 388.5 579.464844 393.121094 577.824219 397.703125 C 576.183594 402.289062 574.433594 406.828125 572.570312 411.328125 C 570.707031 415.824219 568.734375 420.273438 566.652344 424.675781 C 564.570312 429.078125 562.382812 433.425781 560.089844 437.71875 C 557.792969 442.011719 555.394531 446.246094 552.890625 450.421875 C 550.386719 454.597656 547.785156 458.710938 545.078125 462.757812 C 542.375 466.808594 539.570312 470.785156 536.671875 474.695312 C 533.773438 478.605469 530.777344 482.445312 527.6875 486.207031 C 524.601562 489.972656 521.421875 493.65625 518.152344 497.265625 C 514.882812 500.871094 511.527344 504.394531 508.082031 507.839844 C 504.640625 511.28125 501.117188 514.636719 497.507812 517.90625 C 493.902344 521.175781 490.214844 524.355469 486.453125 527.445312 C 482.6875 530.53125 478.851562 533.527344 474.941406 536.425781 C 471.03125 539.328125 467.050781 542.128906 463.003906 544.835938 C 458.957031 547.539062 454.84375 550.144531 450.667969 552.648438 C 446.492188 555.148438 442.257812 557.546875 437.964844 559.84375 C 433.667969 562.136719 429.320312 564.328125 424.921875 566.410156 C 420.519531 568.488281 416.070312 570.460938 411.574219 572.324219 C 407.074219 574.1875 402.535156 575.941406 397.949219 577.582031 C 393.367188 579.21875 388.742188 580.746094 384.085938 582.160156 C 379.425781 583.574219 374.734375 584.871094 370.011719 586.054688 C 365.289062 587.238281 360.542969 588.304688 355.765625 589.253906 C 350.992188 590.203125 346.195312 591.035156 341.378906 591.75 C 336.5625 592.464844 331.734375 593.058594 326.886719 593.539062 C 322.042969 594.015625 317.1875 594.371094 312.328125 594.613281 C 307.464844 594.851562 302.597656 594.96875 297.730469 594.96875 C 292.859375 594.96875 287.996094 594.851562 283.132812 594.613281 C 278.269531 594.371094 273.417969 594.015625 268.570312 593.539062 C 263.726562 593.058594 258.894531 592.464844 254.078125 591.75 C 249.265625 591.035156 244.46875 590.203125 239.691406 589.253906 C 234.917969 588.304688 230.167969 587.238281 225.445312 586.054688 C 220.722656 584.871094 216.035156 583.574219 211.375 582.160156 C 206.714844 580.746094 202.09375 579.21875 197.511719 577.582031 C 192.925781 575.941406 188.386719 574.1875 183.886719 572.324219 C 179.390625 570.460938 174.941406 568.488281 170.539062 566.410156 C 166.136719 564.328125 161.789062 562.136719 157.496094 559.84375 C 153.203125 557.546875 148.96875 555.148438 144.792969 552.644531 C 140.617188 550.144531 136.503906 547.539062 132.457031 544.835938 C 128.40625 542.128906 124.429688 539.328125 120.519531 536.425781 C 116.609375 533.527344 112.769531 530.53125 109.007812 527.445312 C 105.242188 524.355469 101.558594 521.175781 97.949219 517.90625 C 94.34375 514.636719 90.820312 511.28125 87.375 507.839844 C 83.933594 504.394531 80.578125 500.871094 77.308594 497.265625 C 74.039062 493.65625 70.859375 489.972656 67.769531 486.207031 C 64.683594 482.445312 61.6875 478.605469 58.789062 474.695312 C 55.886719 470.785156 53.085938 466.808594 50.378906 462.757812 C 47.675781 458.710938 45.070312 454.597656 42.566406 450.421875 C 40.066406 446.246094 37.667969 442.011719 35.371094 437.71875 C 33.078125 433.425781 30.886719 429.078125 28.804688 424.675781 C 26.726562 420.273438 24.753906 415.824219 22.890625 411.328125 C 21.027344 406.828125 19.273438 402.289062 17.632812 397.703125 C 15.996094 393.121094 14.46875 388.5 13.054688 383.839844 C 11.640625 379.179688 10.34375 374.492188 9.160156 369.769531 C 7.976562 365.046875 6.910156 360.296875 5.960938 355.523438 C 5.011719 350.746094 4.179688 345.949219 3.464844 341.136719 C 2.75 336.320312 2.15625 331.488281 1.675781 326.644531 C 1.199219 321.796875 0.84375 316.945312 0.601562 312.082031 C 0.363281 307.21875 0.246094 302.355469 0.246094 297.484375 C 0.246094 292.617188 0.363281 287.75 0.601562 282.886719 C 0.84375 278.027344 1.199219 273.171875 1.675781 268.328125 C 2.15625 263.480469 2.75 258.652344 3.464844 253.835938 C 4.179688 249.019531 5.011719 244.222656 5.960938 239.449219 C 6.910156 234.671875 7.976562 229.925781 9.160156 225.203125 C 10.34375 220.480469 11.640625 215.789062 13.054688 211.128906 C 14.46875 206.472656 15.996094 201.847656 17.632812 197.265625 C 19.273438 192.679688 21.027344 188.140625 22.890625 183.640625 C 24.753906 179.144531 26.726562 174.695312 28.804688 170.292969 C 30.886719 165.894531 33.078125 161.546875 35.371094 157.25 C 37.667969 152.957031 40.066406 148.722656 42.566406 144.546875 C 45.070312 140.371094 47.675781 136.257812 50.378906 132.210938 C 53.085938 128.164062 55.886719 124.183594 58.789062 120.273438 C 61.6875 116.363281 64.683594 112.527344 67.769531 108.761719 C 70.859375 105 74.039062 101.3125 77.308594 97.707031 C 80.578125 94.097656 83.933594 90.574219 87.375 87.132812 C 90.820312 83.6875 94.34375 80.332031 97.949219 77.0625 C 101.558594 73.792969 105.242188 70.613281 109.007812 67.527344 C 112.769531 64.4375 116.609375 61.441406 120.519531 58.542969 C 124.429688 55.644531 128.40625 52.839844 132.457031 50.136719 C 136.503906 47.429688 140.617188 44.828125 144.792969 42.324219 C 148.96875 39.820312 153.203125 37.421875 157.496094 35.125 C 161.789062 32.832031 166.136719 30.644531 170.539062 28.5625 C 174.941406 26.480469 179.390625 24.507812 183.886719 22.644531 C 188.386719 20.78125 192.925781 19.03125 197.511719 17.390625 C 202.09375 15.75 206.714844 14.222656 211.375 12.808594 C 216.035156 11.394531 220.722656 10.097656 225.445312 8.914062 C 230.167969 7.730469 234.917969 6.664062 239.691406 5.714844 C 244.46875 4.765625 249.265625 3.933594 254.078125 3.21875 C 258.894531 2.503906 263.726562 1.910156 268.570312 1.433594 C 273.417969 0.957031 278.269531 0.597656 283.132812 0.359375 C 287.996094 0.121094 292.859375 0 297.730469 0 C 302.597656 0 307.464844 0.121094 312.328125 0.359375 C 317.1875 0.597656 322.042969 0.957031 326.886719 1.433594 C 331.734375 1.910156 336.5625 2.503906 341.378906 3.21875 C 346.195312 3.933594 350.992188 4.765625 355.765625 5.714844 C 360.542969 6.664062 365.289062 7.730469 370.011719 8.914062 C 374.734375 10.097656 379.425781 11.394531 384.085938 12.808594 C 388.742188 14.222656 393.367188 15.75 397.949219 17.390625 C 402.535156 19.03125 407.074219 20.78125 411.574219 22.644531 C 416.070312 24.507812 420.519531 26.480469 424.921875 28.5625 C 429.320312 30.644531 433.667969 32.832031 437.964844 35.125 C 442.257812 37.421875 446.492188 39.820312 450.667969 42.324219 C 454.84375 44.828125 458.957031 47.429688 463.003906 50.136719 C 467.050781 52.839844 471.03125 55.644531 474.941406 58.542969 C 478.851562 61.441406 482.6875 64.4375 486.453125 67.527344 C 490.214844 70.613281 493.902344 73.792969 497.507812 77.0625 C 501.117188 80.332031 504.640625 83.6875 508.082031 87.132812 C 511.527344 90.574219 514.882812 94.097656 518.152344 97.707031 C 521.421875 101.3125 524.601562 105 527.6875 108.761719 C 530.777344 112.527344 533.773438 116.363281 536.671875 120.273438 C 539.570312 124.183594 542.375 128.164062 545.078125 132.210938 C 547.785156 136.257812 550.386719 140.371094 552.890625 144.546875 C 555.394531 148.722656 557.792969 152.957031 560.089844 157.25 C 562.382812 161.546875 564.570312 165.894531 566.652344 170.292969 C 568.734375 174.695312 570.707031 179.144531 572.570312 183.640625 C 574.433594 188.140625 576.183594 192.679688 577.824219 197.265625 C 579.464844 201.847656 580.992188 206.472656 582.40625 211.128906 C 583.820312 215.789062 585.117188 220.480469 586.300781 225.203125 C 587.484375 229.925781 588.550781 234.671875 589.5 239.449219 C 590.449219 244.222656 591.28125 249.019531 591.996094 253.835938 C 592.710938 258.652344 593.304688 263.480469 593.78125 268.328125 C 594.257812 273.171875 594.617188 278.027344 594.855469 282.886719 C 595.09375 287.75 595.214844 292.617188 595.214844 297.484375 Z M 595.214844 297.484375 " fill-opacity="1" fill-rule="nonzero"/></g><path fill="#ffffff" d="M 463.488281 429.804688 L 460.75 429.804688 L 460.75 336.992188 C 460.75 325.328125 451.351562 315.453125 439.691406 315.453125 L 360.320312 315.453125 C 361.988281 309.503906 362.9375 303.433594 362.820312 297.128906 C 362.820312 266.191406 341.164062 239.535156 310.699219 233.226562 L 310.699219 147.078125 C 310.820312 141.363281 308.558594 136.128906 304.632812 132.082031 C 300.703125 128.039062 295.351562 125.894531 289.757812 125.894531 L 155.53125 125.894531 C 149.820312 125.894531 144.585938 128.15625 140.65625 132.082031 C 136.730469 136.128906 134.46875 141.484375 134.46875 147.078125 L 134.46875 240.367188 L 131.613281 240.367188 C 130.1875 240.367188 128.757812 240.84375 127.6875 242.035156 C 126.617188 243.105469 126.019531 244.414062 126.019531 245.960938 L 126.019531 257.980469 C 126.019531 269.640625 135.539062 279.515625 147.320312 279.515625 L 234.902344 279.515625 C 233.234375 285.464844 232.28125 291.535156 232.402344 297.84375 C 232.402344 328.78125 254.058594 355.433594 284.519531 361.742188 L 284.519531 430.164062 L 281.546875 430.164062 C 278.453125 430.164062 276.074219 432.898438 276.074219 435.996094 L 276.074219 448.011719 C 276.074219 453.722656 278.214844 458.960938 282.261719 463.003906 C 286.1875 467.050781 291.660156 469.195312 297.136719 469.195312 L 448.019531 469.195312 C 459.679688 469.195312 469.320312 459.792969 469.320312 447.894531 L 469.320312 435.875 C 469.199219 432.542969 466.703125 429.925781 463.488281 429.804688 Z M 310.820312 361.503906 C 323.433594 358.886719 334.855469 352.578125 343.898438 343.417969 L 434.214844 343.417969 L 434.214844 415.882812 L 310.820312 415.882812 Z M 145.65625 147.195312 C 145.65625 144.578125 146.605469 141.960938 148.511719 140.175781 C 150.414062 138.390625 152.914062 137.199219 155.53125 137.199219 L 289.875 137.199219 C 292.613281 137.199219 295.113281 138.269531 296.898438 140.175781 C 298.800781 142.078125 299.753906 144.695312 299.632812 147.195312 L 299.632812 232.039062 C 298.917969 232.039062 298.207031 231.917969 297.371094 231.917969 C 296.777344 231.917969 296.0625 231.917969 295.46875 231.917969 C 295.46875 231.800781 295.46875 231.445312 295.46875 231.207031 L 295.46875 147.910156 C 295.46875 146.480469 294.992188 145.054688 294.039062 144.101562 C 293.089844 143.148438 291.660156 142.4375 290.234375 142.675781 L 155.292969 142.675781 C 153.867188 142.675781 152.4375 143.148438 151.367188 144.101562 C 150.296875 145.054688 149.703125 146.480469 149.703125 147.910156 L 149.703125 231.324219 C 149.703125 232.753906 150.296875 234.179688 151.367188 235.132812 C 152.4375 236.085938 153.867188 236.796875 155.292969 236.558594 L 272.742188 236.558594 C 270.480469 237.988281 268.21875 238.703125 266.078125 240.011719 L 245.730469 240.011719 C 244.300781 240.011719 242.636719 240.605469 241.683594 241.796875 L 238.472656 245.246094 C 236.566406 247.386719 233.949219 248.460938 231.09375 248.460938 L 214.433594 248.460938 C 211.695312 248.460938 208.960938 247.269531 207.054688 245.246094 L 203.84375 241.796875 C 202.773438 240.605469 201.226562 240.011719 199.796875 240.011719 L 145.773438 240.011719 L 145.773438 147.195312 Z M 284.285156 225.492188 L 161.003906 225.492188 L 161.003906 153.859375 L 284.519531 153.859375 L 284.519531 225.492188 Z M 147.320312 268.09375 C 141.847656 268.09375 137.207031 263.214844 137.207031 257.742188 L 137.207031 251.316406 L 197.296875 251.316406 L 198.726562 252.980469 C 202.773438 257.382812 208.367188 259.765625 214.316406 259.765625 L 230.855469 259.765625 C 236.6875 259.765625 242.515625 257.382812 246.445312 252.980469 L 247.871094 251.316406 L 250.964844 251.316406 C 246.085938 256.195312 242.160156 261.90625 238.945312 268.09375 Z M 243.347656 297.367188 C 243.347656 267.378906 267.625 243.105469 297.609375 243.105469 C 327.597656 243.105469 351.871094 267.378906 351.871094 297.367188 C 351.871094 327.351562 327.597656 351.628906 297.609375 351.628906 C 267.625 351.628906 243.347656 327.234375 243.347656 297.367188 Z M 295.46875 362.695312 C 296.183594 362.695312 296.898438 362.8125 297.730469 362.8125 C 298.324219 362.8125 298.917969 362.8125 299.632812 362.8125 L 299.632812 421.359375 C 299.632812 424.453125 301.894531 427.1875 305.109375 427.1875 L 439.808594 427.1875 C 442.902344 427.070312 445.519531 424.570312 445.28125 421.359375 L 445.28125 337.941406 C 445.28125 334.847656 442.785156 332.230469 439.808594 332.230469 L 352.824219 332.230469 C 354.132812 330.566406 355.085938 328.660156 355.917969 326.757812 L 439.691406 326.757812 C 445.164062 326.757812 449.566406 331.636719 449.566406 337.109375 L 449.566406 429.925781 L 395.304688 429.925781 C 393.640625 429.925781 392.210938 430.640625 391.257812 431.828125 L 388.046875 435.519531 C 386.140625 437.660156 383.523438 438.96875 380.667969 438.96875 L 364.128906 438.96875 C 361.273438 438.851562 358.65625 437.660156 356.75 435.519531 L 353.539062 431.828125 C 352.46875 430.640625 351.039062 429.925781 349.492188 429.925781 L 295.351562 429.925781 L 295.351562 362.695312 Z M 458.015625 447.65625 C 458.015625 453.128906 453.492188 457.769531 447.898438 457.769531 L 297.136719 457.769531 C 294.515625 457.769531 291.898438 456.699219 290.113281 454.796875 C 288.210938 452.890625 287.257812 450.273438 287.257812 447.773438 L 287.257812 441.109375 L 347.230469 441.109375 L 348.660156 443.015625 C 352.703125 447.535156 358.296875 450.035156 364.246094 450.15625 L 380.789062 450.15625 C 386.738281 450.035156 392.449219 447.535156 396.375 443.015625 L 397.804688 441.109375 L 457.894531 441.109375 Z M 458.015625 447.65625 " fill-opacity="1" fill-rule="nonzero"/><path fill="#ffffff" d="M 310.460938 336.515625 C 326.050781 333.539062 328.3125 326.757812 328.3125 323.070312 L 328.3125 271.664062 C 328.3125 261.550781 312.722656 257.027344 297.609375 257.027344 C 282.378906 257.027344 266.910156 261.550781 266.910156 271.664062 L 266.910156 323.070312 C 266.910156 333.183594 282.5 337.824219 297.609375 337.824219 L 297.847656 337.824219 C 302.132812 337.824219 306.296875 337.347656 310.460938 336.515625 Z M 278.097656 300.460938 C 283.570312 302.363281 290.710938 303.433594 297.609375 303.433594 C 304.511719 303.433594 311.53125 302.484375 317.125 300.460938 L 317.125 305.21875 C 314.984375 306.648438 308.320312 309.382812 297.609375 309.382812 C 286.902344 309.382812 280.238281 306.765625 278.097656 305.21875 Z M 278.097656 283.445312 C 283.570312 285.347656 290.710938 286.417969 297.609375 286.417969 C 304.511719 286.417969 311.53125 285.464844 317.125 283.445312 L 317.125 288.203125 C 314.984375 289.632812 308.320312 292.367188 297.609375 292.367188 C 286.902344 292.367188 280.238281 289.75 278.097656 288.203125 Z M 297.609375 268.210938 C 306.890625 268.210938 313.316406 270.117188 315.9375 271.664062 C 313.316406 273.089844 306.890625 275.113281 297.609375 275.113281 C 288.328125 275.113281 281.902344 273.210938 279.285156 271.664062 C 281.902344 270.117188 288.328125 268.210938 297.609375 268.210938 Z M 278.097656 322.355469 L 278.097656 317.476562 C 283.570312 319.378906 290.710938 320.449219 297.609375 320.449219 C 304.511719 320.449219 311.53125 319.5 317.125 317.476562 L 317.125 322.355469 C 316.410156 323.070312 313.675781 324.617188 308.320312 325.566406 C 304.75 326.164062 301.179688 326.519531 297.492188 326.519531 C 286.78125 326.636719 280.238281 323.902344 278.097656 322.355469 Z M 278.097656 322.355469 " fill-opacity="1" fill-rule="nonzero"/><path fill="#ffffff" d="M 405.539062 209.308594 C 404.585938 208.238281 403.160156 207.644531 401.613281 207.644531 C 400.183594 207.644531 398.753906 208.121094 397.683594 209.308594 C 395.542969 211.453125 395.425781 215.023438 397.683594 217.164062 L 414.464844 234.179688 C 414.582031 234.300781 414.582031 234.300781 414.699219 234.417969 L 414.820312 234.539062 C 415.535156 235.132812 416.246094 235.488281 417.199219 235.726562 C 417.320312 235.726562 417.558594 235.847656 417.675781 235.847656 C 417.792969 235.847656 418.03125 235.964844 418.152344 235.964844 C 418.269531 235.964844 418.390625 235.847656 418.628906 235.847656 C 419.578125 235.726562 420.53125 235.371094 421.246094 234.894531 C 421.246094 234.894531 421.246094 234.773438 421.363281 234.773438 C 421.484375 234.65625 421.601562 234.65625 421.722656 234.539062 C 421.839844 234.539062 421.839844 234.417969 421.839844 234.417969 C 421.960938 234.300781 421.960938 234.300781 422.078125 234.179688 L 438.738281 217.164062 C 440.878906 214.902344 440.878906 211.453125 438.617188 209.308594 C 436.359375 207.167969 432.789062 207.167969 430.527344 209.429688 L 423.269531 216.6875 L 423.269531 186.820312 C 423.269531 178.253906 419.9375 170.042969 413.867188 164.09375 C 407.800781 158.023438 399.707031 154.691406 391.140625 154.691406 L 354.015625 154.691406 C 350.921875 154.691406 348.539062 157.191406 348.539062 160.164062 C 348.539062 163.140625 351.039062 165.640625 354.015625 165.640625 L 391.140625 165.640625 C 396.851562 165.640625 402.085938 167.902344 406.015625 171.828125 C 409.941406 175.753906 412.203125 181.109375 412.082031 186.703125 L 412.082031 216.570312 Z M 405.539062 209.308594 " fill-opacity="1" fill-rule="nonzero"/><path fill="#ffffff" d="M 240.851562 429.210938 L 203.722656 429.210938 C 198.132812 429.210938 192.777344 426.949219 188.851562 423.023438 C 184.921875 419.097656 182.664062 413.742188 182.78125 408.148438 L 182.78125 378.164062 L 189.921875 385.421875 C 190.875 386.492188 192.300781 387.085938 193.847656 387.085938 C 195.277344 387.085938 196.703125 386.613281 197.773438 385.421875 C 199.917969 383.28125 200.035156 379.710938 197.773438 377.566406 L 180.878906 360.550781 C 180.757812 360.433594 180.757812 360.433594 180.640625 360.3125 L 180.519531 360.195312 C 179.808594 359.601562 179.09375 359.242188 178.140625 359.003906 C 178.023438 359.003906 177.785156 358.886719 177.664062 358.886719 C 177.546875 358.886719 177.308594 358.765625 177.1875 358.765625 C 177.070312 358.765625 176.949219 358.886719 176.710938 358.886719 C 175.761719 359.003906 174.808594 359.363281 174.09375 359.839844 L 174.09375 359.957031 C 173.976562 360.074219 173.855469 360.074219 173.738281 360.195312 C 173.617188 360.195312 173.617188 360.3125 173.617188 360.3125 C 173.5 360.433594 173.5 360.433594 173.382812 360.550781 L 156.722656 377.566406 C 155.054688 379.234375 154.578125 381.613281 155.53125 383.636719 C 156.484375 385.660156 158.386719 387.085938 160.769531 387.085938 C 162.195312 387.085938 163.863281 386.492188 164.8125 385.421875 L 172.070312 378.164062 L 172.070312 408.148438 C 172.070312 416.71875 175.402344 424.929688 181.472656 430.878906 C 187.542969 436.945312 195.632812 440.277344 204.199219 440.277344 L 241.207031 440.277344 C 244.300781 440.277344 246.679688 437.777344 246.679688 434.804688 C 246.324219 431.589844 243.945312 429.210938 240.851562 429.210938 Z M 240.851562 429.210938 " fill-opacity="1" fill-rule="nonzero"/></svg>