<svg xmlns="http://www.w3.org/2000/svg" xmlns:xlink="http://www.w3.org/1999/xlink" width="793" zoomAndPan="magnify" viewBox="0 0 594.95996 842.24997" height="1122" preserveAspectRatio="xMidYMid meet" version="1.0"><defs><clipPath id="288dc97f36"><path d="M 59.71875 59.476562 L 535.546875 59.476562 L 535.546875 535.300781 L 59.71875 535.300781 Z M 59.71875 59.476562 " clip-rule="nonzero"/></clipPath></defs><g clip-path="url(#288dc97f36)"><path fill="#ffffff" d="M 527.582031 519.40625 L 513.171875 519.40625 L 513.171875 223.804688 C 513.171875 219.417969 509.621094 215.875 505.242188 215.875 L 439.140625 215.875 C 434.761719 215.875 431.210938 219.417969 431.210938 223.804688 L 431.210938 519.40625 L 402.152344 519.40625 L 402.152344 350.683594 C 402.152344 346.296875 398.601562 342.753906 394.222656 342.753906 L 328.121094 342.753906 C 323.742188 342.753906 320.191406 346.296875 320.191406 350.683594 L 320.191406 519.40625 L 291.136719 519.40625 L 291.136719 287.242188 C 291.136719 282.859375 287.582031 279.3125 283.207031 279.3125 L 217.101562 279.3125 C 212.726562 279.3125 209.171875 282.859375 209.171875 287.242188 L 209.171875 519.40625 L 180.117188 519.40625 L 180.117188 398.261719 C 180.117188 393.875 176.566406 390.332031 172.1875 390.332031 L 106.085938 390.332031 C 101.707031 390.332031 98.15625 393.875 98.15625 398.261719 L 98.15625 519.40625 L 75.578125 519.40625 L 75.578125 67.40625 C 75.578125 63.019531 72.027344 59.476562 67.648438 59.476562 C 63.273438 59.476562 59.71875 63.019531 59.71875 67.40625 L 59.71875 527.335938 C 59.71875 531.722656 63.273438 535.265625 67.648438 535.265625 L 527.582031 535.265625 C 531.957031 535.265625 535.511719 531.722656 535.511719 527.335938 C 535.511719 522.949219 531.957031 519.40625 527.582031 519.40625 Z M 114.015625 519.40625 L 114.015625 406.191406 L 164.257812 406.191406 L 164.257812 519.40625 Z M 225.03125 519.40625 L 225.03125 295.171875 L 275.277344 295.171875 L 275.277344 519.40625 Z M 336.050781 519.40625 L 336.050781 358.613281 L 386.292969 358.613281 L 386.292969 519.40625 Z M 447.070312 519.40625 L 447.070312 231.734375 L 497.3125 231.734375 L 497.3125 519.40625 Z M 447.070312 519.40625 " fill-opacity="1" fill-rule="nonzero"/></g><path fill="#ffffff" d="M 139.136719 337.019531 C 156.628906 337.019531 170.855469 322.792969 170.855469 305.300781 C 170.855469 299.449219 169.152344 294.023438 166.375 289.3125 L 230.441406 218 C 235.953125 222.609375 242.9375 225.484375 250.664062 225.484375 C 260.519531 225.484375 269.226562 220.878906 275.046875 213.804688 L 331.746094 253.96875 C 330.300781 257.59375 329.453125 261.519531 329.453125 265.652344 C 329.453125 283.144531 343.679688 297.371094 361.171875 297.371094 C 378.664062 297.371094 392.890625 283.144531 392.890625 265.652344 C 392.890625 260.789062 391.703125 256.238281 389.742188 252.113281 L 464.246094 153.183594 C 466.796875 153.847656 469.429688 154.316406 472.191406 154.316406 C 489.683594 154.316406 503.910156 140.089844 503.910156 122.597656 C 503.910156 105.101562 489.683594 90.875 472.191406 90.875 C 454.699219 90.875 440.472656 105.101562 440.472656 122.597656 C 440.472656 131.566406 444.246094 139.636719 450.25 145.410156 L 379.269531 239.664062 C 374.128906 236.074219 367.90625 233.929688 361.171875 233.929688 C 353.558594 233.929688 346.660156 236.738281 341.1875 241.21875 L 281.835938 199.175781 C 282.144531 197.414062 282.382812 195.621094 282.382812 193.773438 C 282.382812 176.28125 268.15625 162.054688 250.664062 162.054688 C 233.167969 162.054688 218.941406 176.28125 218.941406 193.773438 C 218.941406 197.652344 219.742188 201.324219 221.019531 204.765625 L 155.15625 278.085938 C 150.4375 275.292969 145.003906 273.589844 139.136719 273.589844 C 121.644531 273.589844 107.417969 287.816406 107.417969 305.308594 C 107.417969 322.800781 121.644531 337.027344 139.136719 337.027344 Z M 472.191406 106.738281 C 480.9375 106.738281 488.050781 113.851562 488.050781 122.597656 C 488.050781 131.34375 480.9375 138.457031 472.191406 138.457031 C 463.445312 138.457031 456.332031 131.34375 456.332031 122.597656 C 456.332031 113.851562 463.445312 106.738281 472.191406 106.738281 Z M 361.171875 249.792969 C 369.917969 249.792969 377.03125 256.902344 377.03125 265.652344 C 377.03125 274.398438 369.917969 281.511719 361.171875 281.511719 C 352.425781 281.511719 345.3125 274.398438 345.3125 265.652344 C 345.3125 256.902344 352.425781 249.792969 361.171875 249.792969 Z M 250.664062 177.914062 C 259.410156 177.914062 266.523438 185.027344 266.523438 193.773438 C 266.523438 202.519531 259.410156 209.632812 250.664062 209.632812 C 241.914062 209.632812 234.800781 202.519531 234.800781 193.773438 C 234.800781 185.027344 241.914062 177.914062 250.664062 177.914062 Z M 139.136719 289.441406 C 147.882812 289.441406 154.996094 296.554688 154.996094 305.300781 C 154.996094 314.046875 147.882812 321.160156 139.136719 321.160156 C 130.390625 321.160156 123.277344 314.046875 123.277344 305.300781 C 123.277344 296.554688 130.390625 289.441406 139.136719 289.441406 Z M 139.136719 289.441406 " fill-opacity="1" fill-rule="nonzero"/></svg>