<svg xmlns="http://www.w3.org/2000/svg" xmlns:xlink="http://www.w3.org/1999/xlink" width="793" zoomAndPan="magnify" viewBox="0 0 594.95996 842.24997" height="1122" preserveAspectRatio="xMidYMid meet" version="1.0"><defs><clipPath id="985fb2a055"><path d="M 59.71875 59.476562 L 535.546875 59.476562 L 535.546875 491 L 59.71875 491 Z M 59.71875 59.476562 " clip-rule="nonzero"/></clipPath><clipPath id="a49f1e99e0"><path d="M 183 182 L 413 182 L 413 570.519531 L 183 570.519531 Z M 183 182 " clip-rule="nonzero"/></clipPath></defs><g clip-path="url(#985fb2a055)"><path fill="#ffffff" d="M 511.292969 246.355469 L 489.65625 244.589844 C 486.15625 244.320312 483.242188 242.09375 482.246094 238.9375 C 479.046875 228.726562 474.757812 218.40625 469.511719 208.277344 C 468.007812 205.367188 468.515625 201.640625 470.769531 198.988281 L 484.78125 182.417969 C 493.597656 172.019531 492.957031 156.332031 483.324219 146.699219 L 448.34375 111.71875 C 438.714844 102.085938 423.03125 101.449219 412.640625 110.25 L 396.050781 124.277344 C 393.398438 126.523438 389.667969 127.027344 386.785156 125.546875 C 376.636719 120.285156 366.316406 115.996094 356.128906 112.808594 C 352.992188 111.816406 350.765625 108.863281 350.449219 105.320312 L 348.863281 86.292969 C 347.550781 70.539062 336.625 59.53125 322.285156 59.53125 L 272.945312 59.53125 C 259.324219 59.53125 247.726562 70.148438 246.542969 83.75 L 244.773438 105.386719 C 244.507812 108.886719 242.28125 111.800781 239.125 112.796875 C 228.914062 115.996094 218.589844 120.285156 208.464844 125.53125 C 205.550781 127.035156 201.832031 126.523438 199.160156 124.257812 L 182.605469 110.257812 C 172.210938 101.453125 156.515625 102.085938 146.886719 111.71875 L 111.90625 146.699219 C 102.273438 156.332031 101.632812 172.019531 110.4375 182.402344 L 124.464844 198.992188 C 126.714844 201.640625 127.222656 205.367188 125.734375 208.253906 C 120.472656 218.40625 116.183594 228.726562 112.992188 238.914062 C 111.988281 242.09375 109.074219 244.320312 105.519531 244.59375 L 83.890625 246.359375 C 70.335938 247.539062 59.71875 259.136719 59.71875 272.757812 L 59.71875 322.097656 C 59.71875 335.71875 70.335938 347.316406 83.9375 348.503906 L 105.578125 350.269531 C 109.074219 350.535156 111.988281 352.761719 112.984375 355.921875 C 116.175781 366.117188 120.464844 376.441406 125.71875 386.578125 C 127.214844 389.488281 126.714844 393.222656 124.445312 395.886719 L 110.445312 412.445312 C 101.636719 422.835938 102.273438 438.523438 111.90625 448.160156 C 111.90625 448.160156 146.878906 483.132812 146.886719 483.136719 C 156.417969 492.667969 172.308594 493.320312 182.59375 484.609375 L 199.179688 470.574219 C 201.820312 468.320312 205.5625 467.8125 208.488281 469.335938 C 217.65625 474.015625 225.484375 477.398438 233.125 479.96875 C 238.796875 481.878906 244.75 477.578125 244.75 471.617188 L 244.75 456.023438 C 244.75 448.546875 247.183594 441.324219 251.796875 435.148438 C 255.40625 430.316406 253.816406 422.265625 248.066406 419.929688 C 236.675781 415.300781 226.09375 409.191406 216.617188 401.777344 C 207.675781 394.78125 196.730469 408.59375 205.746094 415.644531 C 214.074219 422.167969 223.144531 427.792969 232.800781 432.429688 C 229.066406 439.753906 227.128906 447.773438 227.128906 456.023438 L 227.128906 458.726562 C 223.792969 457.253906 220.296875 455.578125 216.535156 453.660156 C 207.359375 448.933594 195.796875 450.320312 187.777344 457.136719 L 171.203125 471.160156 C 167.761719 474.085938 162.550781 473.871094 159.347656 470.679688 L 124.367188 435.703125 C 121.167969 432.5 120.957031 427.292969 123.894531 423.828125 L 137.890625 407.28125 C 144.8125 399.132812 146.191406 387.835938 141.375 378.488281 C 136.582031 369.242188 132.6875 359.878906 129.796875 350.628906 C 126.605469 340.542969 117.617188 333.507812 106.957031 332.699219 L 85.421875 330.941406 C 80.890625 330.546875 77.339844 326.65625 77.339844 322.097656 L 77.339844 272.757812 C 77.339844 268.195312 80.890625 264.308594 85.375 263.917969 L 106.90625 262.160156 C 117.621094 261.34375 126.609375 254.300781 129.808594 244.195312 C 132.695312 234.96875 136.585938 225.605469 141.386719 216.347656 C 146.121094 207.160156 144.710938 195.59375 137.902344 187.597656 L 123.886719 171.015625 C 120.957031 167.566406 121.167969 162.355469 124.363281 159.160156 L 159.347656 124.175781 C 162.535156 120.980469 167.742188 120.765625 171.214844 123.707031 L 187.761719 137.699219 C 195.785156 144.53125 207.351562 145.929688 216.558594 141.1875 C 225.792969 136.398438 235.15625 132.507812 244.410156 129.613281 C 254.488281 126.421875 261.53125 117.4375 262.339844 106.769531 L 264.101562 85.234375 C 264.496094 80.703125 268.382812 77.152344 272.945312 77.152344 L 322.285156 77.152344 C 327.226562 77.152344 330.769531 81.316406 331.300781 87.753906 L 332.894531 106.828125 C 333.839844 117.523438 340.875 126.464844 350.847656 129.621094 C 360.074219 132.507812 369.4375 136.398438 378.695312 141.203125 C 387.878906 145.9375 399.445312 144.535156 407.445312 137.714844 L 424.027344 123.699219 C 427.464844 120.769531 432.683594 120.976562 435.882812 124.175781 L 470.867188 159.160156 C 474.0625 162.355469 474.273438 167.566406 471.339844 171.019531 L 457.34375 187.574219 C 450.519531 195.59375 449.109375 207.160156 453.855469 216.371094 C 458.644531 225.605469 462.535156 234.96875 465.429688 244.222656 C 468.621094 254.300781 477.605469 261.34375 488.273438 262.152344 L 509.808594 263.914062 C 514.339844 264.308594 517.886719 268.195312 517.886719 272.757812 L 517.886719 322.097656 C 517.886719 326.65625 514.339844 330.546875 509.855469 330.933594 L 488.328125 332.699219 C 477.609375 333.507812 468.625 340.542969 465.421875 350.65625 C 462.539062 359.878906 458.648438 369.242188 453.839844 378.507812 C 449.039062 387.835938 450.417969 399.132812 457.328125 407.261719 L 471.34375 423.835938 C 474.273438 427.292969 474.0625 432.5 470.867188 435.703125 L 435.882812 470.679688 C 432.683594 473.871094 427.46875 474.085938 424.019531 471.152344 L 407.46875 457.152344 C 399.449219 450.328125 387.898438 448.933594 378.71875 453.640625 C 374.949219 455.570312 371.441406 457.246094 368.101562 458.726562 L 368.101562 456.023438 C 368.101562 447.78125 366.164062 439.769531 362.441406 432.449219 C 414.355469 407.652344 447.402344 355.628906 447.402344 297.429688 C 447.402344 214.832031 380.207031 147.640625 297.613281 147.640625 C 215.019531 147.640625 147.828125 214.832031 147.828125 297.429688 C 147.828125 331.078125 158.707031 362.835938 179.289062 389.269531 C 186.027344 397.925781 200.203125 387.441406 193.195312 378.449219 C 175.042969 355.128906 165.449219 327.113281 165.449219 297.429688 C 165.449219 224.550781 224.738281 165.265625 297.613281 165.265625 C 370.488281 165.265625 429.777344 224.550781 429.777344 297.429688 C 429.777344 351.582031 397.359375 399.664062 347.183594 419.921875 C 341.625 422.164062 339.941406 430.46875 343.421875 435.132812 C 348.042969 441.3125 350.480469 448.539062 350.480469 456.023438 C 350.480469 456.023438 350.480469 471.578125 350.480469 471.617188 C 350.480469 477.566406 356.464844 481.832031 362.101562 479.972656 C 369.746094 477.398438 377.570312 474.015625 386.765625 469.320312 C 389.675781 467.832031 393.417969 468.339844 396.066406 470.59375 L 412.625 484.601562 C 423.019531 493.410156 438.707031 492.773438 448.34375 483.136719 L 483.328125 448.160156 C 492.957031 438.523438 493.59375 422.835938 484.792969 412.453125 L 470.769531 395.871094 C 468.515625 393.222656 468.011719 389.488281 469.496094 386.59375 C 474.761719 376.441406 479.050781 366.117188 482.234375 355.945312 C 483.242188 352.761719 486.15625 350.535156 489.707031 350.269531 L 511.339844 348.496094 C 524.890625 347.316406 535.511719 335.71875 535.511719 322.097656 L 535.511719 272.757812 C 535.511719 259.136719 524.890625 247.539062 511.292969 246.355469 Z M 511.292969 246.355469 " fill-opacity="1" fill-rule="nonzero"/></g><g clip-path="url(#a49f1e99e0)"><path fill="#ffffff" d="M 324.046875 440.855469 L 324.046875 408.769531 C 374.484375 396.789062 412.15625 351.472656 412.15625 297.429688 C 412.15625 271.007812 403.410156 246.183594 386.863281 225.644531 C 379.777344 216.847656 365.9375 227.75 373.136719 236.699219 C 387.136719 254.074219 394.535156 275.074219 394.535156 297.429688 C 394.535156 316.929688 388.695312 335.074219 378.742188 350.292969 L 359.292969 350.292969 C 359.292969 350.292969 359.292969 271.316406 359.292969 270.996094 C 359.292969 259.625 341.667969 259.597656 341.667969 270.996094 L 341.667969 350.292969 L 324.046875 350.292969 C 324.046875 350.292969 324.046875 306.417969 324.046875 306.238281 C 324.046875 295.085938 306.425781 294.789062 306.425781 306.238281 L 306.425781 350.292969 L 288.804688 350.292969 C 288.804688 350.292969 288.804688 288.847656 288.804688 288.617188 C 288.804688 277.585938 271.183594 277.195312 271.183594 288.617188 L 271.183594 350.292969 L 253.558594 350.292969 C 253.558594 350.292969 253.558594 323.964844 253.558594 323.859375 C 253.558594 312.804688 235.9375 312.414062 235.9375 323.859375 L 235.9375 350.292969 L 216.488281 350.292969 C 206.535156 335.074219 200.695312 316.929688 200.695312 297.429688 C 200.695312 243.984375 244.171875 200.507812 297.613281 200.507812 C 315.929688 200.507812 333.6875 205.558594 348.980469 215.117188 C 358.511719 221.074219 368.015625 206.230469 358.320312 200.171875 C 340.222656 188.867188 319.234375 182.886719 297.613281 182.886719 C 234.453125 182.886719 183.074219 234.265625 183.074219 297.429688 C 183.074219 351.472656 220.746094 396.789062 271.183594 408.769531 L 271.183594 440.855469 C 265.941406 443.914062 262.371094 449.535156 262.371094 456.023438 L 262.371094 535.324219 C 262.371094 554.761719 278.183594 570.566406 297.613281 570.566406 C 317.046875 570.566406 332.859375 554.761719 332.859375 535.324219 C 332.859375 524.230469 315.238281 523.84375 315.238281 535.324219 C 315.238281 545.039062 307.332031 552.945312 297.613281 552.945312 C 287.894531 552.945312 279.992188 545.039062 279.992188 535.324219 L 279.992188 456.023438 L 315.238281 456.023438 C 315.238281 456.023438 315.238281 499.902344 315.238281 500.078125 C 315.238281 511.351562 332.859375 511.523438 332.859375 500.078125 L 332.859375 456.023438 C 332.859375 449.535156 329.289062 443.910156 324.046875 440.855469 Z M 231.300781 367.914062 L 363.929688 367.914062 C 346.574219 384.253906 323.277344 394.347656 297.613281 394.347656 C 271.953125 394.347656 248.65625 384.253906 231.300781 367.914062 Z M 297.613281 411.96875 C 300.589844 411.96875 303.507812 411.746094 306.425781 411.523438 L 306.425781 438.402344 L 288.804688 438.402344 L 288.804688 411.523438 C 291.722656 411.746094 294.640625 411.96875 297.613281 411.96875 Z M 297.613281 411.96875 " fill-opacity="1" fill-rule="nonzero"/></g><path fill="#ffffff" d="M 344.25 229.523438 L 314.410156 259.363281 L 285.28125 237.515625 C 281.484375 234.667969 276.089844 235.339844 273.113281 239.058594 C 273.113281 239.058594 238.078125 282.851562 237.871094 283.113281 C 230.875 291.859375 244.492188 303.058594 251.628906 294.121094 L 281.539062 256.734375 L 309.949219 278.042969 C 313.460938 280.679688 318.363281 280.328125 321.464844 277.226562 C 321.464844 277.226562 356.554688 242.136719 356.710938 241.980469 C 364.621094 234.070312 352.382812 221.386719 344.25 229.523438 Z M 344.25 229.523438 " fill-opacity="1" fill-rule="nonzero"/></svg>