<svg xmlns="http://www.w3.org/2000/svg" xmlns:xlink="http://www.w3.org/1999/xlink" width="793" zoomAndPan="magnify" viewBox="0 0 594.95996 842.24997" height="1122" preserveAspectRatio="xMidYMid meet" version="1.0"><defs><clipPath id="add1ac856a"><path d="M 59.71875 59.472656 L 535.546875 59.472656 L 535.546875 482.847656 L 59.71875 482.847656 Z M 59.71875 59.472656 " clip-rule="nonzero"/></clipPath></defs><g clip-path="url(#add1ac856a)"><path fill="#ffffff" d="M 486.421875 59.523438 L 108.808594 59.523438 C 81.742188 59.523438 59.71875 81.546875 59.71875 108.613281 L 59.71875 354.058594 C 59.71875 381.128906 81.742188 403.148438 108.808594 403.148438 L 236.03125 403.148438 L 226.757812 437.136719 L 221.84375 437.136719 C 207.0625 437.136719 194.234375 447.652344 191.339844 462.140625 L 188.183594 477.933594 C 187.960938 479.042969 188.246094 480.195312 188.964844 481.066406 C 189.683594 481.941406 190.75 482.449219 191.882812 482.449219 L 403.347656 482.449219 C 404.480469 482.449219 405.546875 481.941406 406.265625 481.066406 C 406.984375 480.195312 407.269531 479.042969 407.046875 477.933594 L 403.890625 462.144531 C 400.992188 447.652344 388.167969 437.136719 373.386719 437.136719 L 368.46875 437.136719 L 359.199219 403.148438 L 486.421875 403.148438 C 513.488281 403.148438 535.511719 381.128906 535.511719 354.058594 L 535.511719 108.613281 C 535.511719 81.546875 513.488281 59.523438 486.421875 59.523438 Z M 396.484375 463.625 L 398.738281 474.894531 L 196.492188 474.894531 L 198.746094 463.621094 C 200.9375 452.652344 210.652344 444.6875 221.84375 444.6875 L 229.632812 444.6875 C 229.636719 444.6875 229.640625 444.6875 229.648438 444.6875 C 229.652344 444.6875 229.65625 444.6875 229.660156 444.6875 L 365.574219 444.6875 C 365.578125 444.6875 365.582031 444.6875 365.585938 444.6875 C 365.589844 444.6875 365.59375 444.6875 365.601562 444.6875 L 373.390625 444.6875 C 384.578125 444.6875 394.292969 452.652344 396.484375 463.625 Z M 360.640625 437.136719 L 234.585938 437.136719 L 243.859375 403.148438 L 351.371094 403.148438 Z M 527.957031 354.058594 C 527.957031 376.960938 509.324219 395.597656 486.421875 395.597656 L 108.808594 395.597656 C 85.90625 395.597656 67.273438 376.960938 67.273438 354.058594 L 67.273438 108.613281 C 67.273438 85.710938 85.90625 67.074219 108.808594 67.074219 L 486.421875 67.074219 C 509.324219 67.074219 527.957031 85.710938 527.957031 108.613281 Z M 527.957031 354.058594 " fill-opacity="1" fill-rule="nonzero"/></g><path fill="#ffffff" d="M 486.421875 82.179688 L 108.808594 82.179688 C 94.234375 82.179688 82.375 94.035156 82.375 108.613281 L 82.375 354.058594 C 82.375 368.636719 94.234375 380.492188 108.808594 380.492188 L 486.421875 380.492188 C 500.996094 380.492188 512.855469 368.636719 512.855469 354.058594 L 512.855469 108.613281 C 512.855469 94.035156 500.996094 82.179688 486.421875 82.179688 Z M 505.300781 354.058594 C 505.300781 364.472656 496.832031 372.941406 486.421875 372.941406 L 108.808594 372.941406 C 98.398438 372.941406 89.929688 364.472656 89.929688 354.058594 L 89.929688 108.613281 C 89.929688 98.203125 98.398438 89.730469 108.808594 89.730469 L 486.421875 89.730469 C 496.832031 89.730469 505.300781 98.203125 505.300781 108.613281 Z M 505.300781 354.058594 " fill-opacity="1" fill-rule="nonzero"/><path fill="#ffffff" d="M 301.390625 104.835938 L 116.359375 104.835938 C 114.277344 104.835938 112.585938 106.527344 112.585938 108.613281 L 112.585938 221.894531 C 112.585938 223.980469 114.277344 225.671875 116.359375 225.671875 L 301.390625 225.671875 C 303.476562 225.671875 305.167969 223.980469 305.167969 221.894531 L 305.167969 108.613281 C 305.167969 106.527344 303.476562 104.835938 301.390625 104.835938 Z M 297.613281 218.121094 L 120.136719 218.121094 L 120.136719 112.386719 L 297.613281 112.386719 Z M 297.613281 218.121094 " fill-opacity="1" fill-rule="nonzero"/><path fill="#ffffff" d="M 301.390625 301.195312 L 116.359375 301.195312 C 114.277344 301.195312 112.585938 302.886719 112.585938 304.96875 C 112.585938 307.054688 114.277344 308.746094 116.359375 308.746094 L 301.390625 308.746094 C 303.476562 308.746094 305.167969 307.054688 305.167969 304.96875 C 305.167969 302.886719 303.476562 301.195312 301.390625 301.195312 Z M 301.390625 301.195312 " fill-opacity="1" fill-rule="nonzero"/><path fill="#ffffff" d="M 301.390625 335.179688 L 297.613281 335.179688 C 295.53125 335.179688 293.839844 336.871094 293.839844 338.957031 C 293.839844 341.039062 295.53125 342.730469 297.613281 342.730469 L 301.390625 342.730469 C 303.476562 342.730469 305.167969 341.039062 305.167969 338.957031 C 305.167969 336.871094 303.476562 335.179688 301.390625 335.179688 Z M 301.390625 335.179688 " fill-opacity="1" fill-rule="nonzero"/><path fill="#ffffff" d="M 282.511719 335.179688 L 116.359375 335.179688 C 114.277344 335.179688 112.585938 336.871094 112.585938 338.957031 C 112.585938 341.039062 114.277344 342.730469 116.359375 342.730469 L 282.511719 342.730469 C 284.59375 342.730469 286.285156 341.039062 286.285156 338.957031 C 286.285156 336.871094 284.59375 335.179688 282.511719 335.179688 Z M 282.511719 335.179688 " fill-opacity="1" fill-rule="nonzero"/><path fill="#ffffff" d="M 486.421875 104.835938 L 324.046875 104.835938 C 321.964844 104.835938 320.273438 106.527344 320.273438 108.613281 C 320.273438 110.695312 321.964844 112.386719 324.046875 112.386719 L 486.421875 112.386719 C 488.503906 112.386719 490.195312 110.695312 490.195312 108.613281 C 490.195312 106.527344 488.503906 104.835938 486.421875 104.835938 Z M 486.421875 104.835938 " fill-opacity="1" fill-rule="nonzero"/><path fill="#ffffff" d="M 486.421875 138.820312 L 482.644531 138.820312 C 480.558594 138.820312 478.867188 140.511719 478.867188 142.597656 C 478.867188 144.683594 480.558594 146.375 482.644531 146.375 L 486.421875 146.375 C 488.503906 146.375 490.195312 144.683594 490.195312 142.597656 C 490.195312 140.511719 488.503906 138.820312 486.421875 138.820312 Z M 486.421875 138.820312 " fill-opacity="1" fill-rule="nonzero"/><path fill="#ffffff" d="M 324.046875 146.375 L 467.539062 146.375 C 469.625 146.375 471.316406 144.683594 471.316406 142.597656 C 471.316406 140.511719 469.625 138.820312 467.539062 138.820312 L 324.046875 138.820312 C 321.964844 138.820312 320.273438 140.511719 320.273438 142.597656 C 320.273438 144.683594 321.964844 146.375 324.046875 146.375 Z M 324.046875 146.375 " fill-opacity="1" fill-rule="nonzero"/><path fill="#ffffff" d="M 486.421875 218.121094 L 324.046875 218.121094 C 321.964844 218.121094 320.273438 219.8125 320.273438 221.894531 L 320.273438 354.058594 C 320.273438 356.144531 321.964844 357.835938 324.046875 357.835938 L 486.421875 357.835938 C 488.503906 357.835938 490.195312 356.144531 490.195312 354.058594 L 490.195312 221.894531 C 490.195312 219.8125 488.503906 218.121094 486.421875 218.121094 Z M 439.25 310.941406 C 427.574219 310.941406 418.074219 301.382812 418.074219 289.632812 C 418.074219 277.878906 427.574219 268.320312 439.25 268.320312 C 450.925781 268.320312 460.425781 277.878906 460.425781 289.632812 C 460.425781 301.382812 450.925781 310.941406 439.25 310.941406 Z M 427.996094 316.183594 C 431.457031 317.664062 435.253906 318.492188 439.246094 318.492188 C 443.351562 318.492188 447.246094 317.609375 450.78125 316.046875 C 454.625 318.511719 462.109375 326.390625 464.039062 350.285156 L 414.949219 350.285156 C 416.855469 326.742188 424.195312 318.746094 427.996094 316.183594 Z M 482.644531 350.285156 L 471.609375 350.285156 C 469.890625 327.65625 463.429688 316.871094 457.644531 311.773438 C 463.953125 306.476562 467.976562 298.519531 467.976562 289.632812 C 467.976562 273.714844 455.089844 260.765625 439.25 260.765625 C 423.410156 260.765625 410.519531 273.714844 410.519531 289.632812 C 410.519531 298.644531 414.660156 306.699219 421.125 311.996094 C 415.4375 317.15625 409.085938 327.933594 407.382812 350.285156 L 327.824219 350.285156 L 327.824219 225.671875 L 482.644531 225.671875 Z M 482.644531 350.285156 " fill-opacity="1" fill-rule="nonzero"/><path fill="#ffffff" d="M 233.667969 150.101562 L 236.382812 194.632812 C 236.460938 195.960938 237.238281 197.152344 238.425781 197.757812 C 239.601562 198.371094 241.027344 198.304688 242.15625 197.601562 L 251.339844 191.855469 L 259.441406 204.992188 C 259.96875 205.851562 260.816406 206.460938 261.792969 206.691406 C 262.074219 206.757812 262.363281 206.792969 262.652344 206.792969 C 263.355469 206.792969 264.046875 206.59375 264.648438 206.222656 L 278.441406 197.625 C 280.203125 196.527344 280.746094 194.210938 279.65625 192.4375 L 271.515625 179.238281 L 280.734375 173.46875 C 281.875 172.753906 282.550781 171.488281 282.507812 170.144531 C 282.460938 168.800781 281.707031 167.582031 280.519531 166.941406 L 239.109375 144.664062 C 237.90625 144.011719 236.441406 144.070312 235.285156 144.808594 C 234.128906 145.546875 233.46875 146.851562 233.554688 148.21875 L 233.667969 150.101562 C 233.667969 150.097656 233.667969 150.097656 233.667969 150.101562 Z M 271.222656 170.511719 L 264.328125 174.824219 C 262.570312 175.925781 262.027344 178.238281 263.117188 180.007812 L 271.253906 193.203125 L 263.871094 197.808594 L 255.769531 184.667969 C 255.238281 183.808594 254.394531 183.203125 253.410156 182.972656 C 253.128906 182.902344 252.839844 182.875 252.550781 182.875 C 251.847656 182.875 251.152344 183.070312 250.550781 183.449219 L 243.53125 187.839844 L 241.496094 154.527344 Z M 271.222656 170.511719 " fill-opacity="1" fill-rule="nonzero"/><path fill="#ffffff" d="M 339.152344 270.984375 L 373.136719 270.984375 C 375.222656 270.984375 376.914062 269.292969 376.914062 267.210938 L 376.914062 258.214844 L 401.660156 270.585938 C 402.191406 270.851562 402.769531 270.984375 403.347656 270.984375 C 404.039062 270.984375 404.722656 270.796875 405.332031 270.421875 C 406.441406 269.730469 407.121094 268.519531 407.121094 267.210938 L 407.121094 237 C 407.121094 235.691406 406.441406 234.476562 405.332031 233.785156 C 404.222656 233.097656 402.828125 233.039062 401.660156 233.621094 L 376.914062 245.996094 L 376.914062 237 C 376.914062 234.914062 375.222656 233.222656 373.136719 233.222656 L 339.152344 233.222656 C 337.066406 233.222656 335.375 234.914062 335.375 237 L 335.375 267.210938 C 335.375 269.292969 337.066406 270.984375 339.152344 270.984375 Z M 399.570312 243.109375 L 399.570312 261.097656 L 381.582031 252.105469 Z M 342.929688 240.777344 L 369.359375 240.777344 L 369.359375 263.433594 L 342.929688 263.433594 Z M 342.929688 240.777344 " fill-opacity="1" fill-rule="nonzero"/></svg>