<svg xmlns="http://www.w3.org/2000/svg" xmlns:xlink="http://www.w3.org/1999/xlink" width="793" zoomAndPan="magnify" viewBox="0 0 594.95996 842.24997" height="1122" preserveAspectRatio="xMidYMid meet" version="1.0"><defs><clipPath id="adf2b4b67a"><path d="M 61 59.472656 L 533 59.472656 L 533 545.792969 L 61 545.792969 Z M 61 59.472656 " clip-rule="nonzero"/></clipPath></defs><g clip-path="url(#adf2b4b67a)"><path fill="#ffffff" d="M 61.476562 307.371094 C 60.148438 335.753906 80.285156 362.8125 118.046875 383.980469 C 116.082031 391.246094 114.511719 398.464844 113.429688 405.683594 C 102.824219 407.304688 94.621094 416.390625 94.621094 427.4375 C 94.621094 439.078125 103.707031 448.507812 115.101562 449.390625 C 121.191406 472.175781 134.695312 486.957031 155.515625 493 C 162.585938 495.0625 170.25 496.042969 178.449219 496.042969 C 192.054688 496.042969 207.03125 493.34375 222.695312 488.53125 C 238.867188 517.886719 263.59375 545.59375 297.144531 545.59375 C 305.785156 545.59375 314.28125 543.53125 322.582031 539.652344 C 326.511719 543.285156 331.765625 545.59375 337.558594 545.59375 C 349.738281 545.59375 359.660156 535.671875 359.660156 523.492188 C 359.660156 519.121094 358.332031 515.046875 356.121094 511.609375 C 361.621094 504.683594 366.632812 497.121094 371.199219 489.019531 C 385.144531 492.949219 398.894531 495.207031 412.105469 495.207031 C 412.449219 495.207031 412.746094 495.207031 413.089844 495.160156 C 416.425781 503.113281 424.285156 508.664062 433.417969 508.664062 C 445.597656 508.664062 455.515625 498.792969 455.515625 486.566406 C 455.515625 485.535156 455.371094 484.550781 455.222656 483.570312 C 470.789062 473.355469 480.070312 458.277344 482.625 438.441406 C 484.734375 422.085938 482.230469 403.476562 476.242188 383.929688 C 514.839844 362.371094 535.121094 334.480469 532.566406 305.113281 C 530.210938 278.445312 510.125 254.335938 476.289062 235.527344 C 480.023438 222.21875 482.183594 209.058594 482.328125 196.386719 C 490.972656 193.394531 497.210938 185.242188 497.210938 175.617188 C 497.210938 163.4375 487.339844 153.515625 475.109375 153.515625 C 474.078125 153.515625 473.097656 153.664062 472.066406 153.8125 C 462.785156 138.441406 448.9375 128.816406 430.765625 125.28125 C 413.433594 121.941406 392.953125 124.492188 371.445312 130.976562 C 357.300781 104.800781 338.886719 84.863281 315.558594 77.300781 C 313.546875 67.183594 304.609375 59.472656 293.902344 59.472656 C 282.265625 59.472656 272.835938 68.511719 271.953125 79.902344 C 251.769531 89.136719 235.414062 107.648438 222.597656 130.976562 C 186.0625 120.023438 152.570312 121.152344 130.472656 143.203125 C 107.246094 166.480469 106.605469 200.21875 117.605469 236.015625 C 82.445312 255.710938 62.753906 280.507812 61.476562 307.371094 Z M 158.316406 483.570312 C 141.324219 478.660156 130.175781 466.628906 124.875 447.964844 C 133.027344 444.675781 138.820312 436.769531 138.820312 427.4375 C 138.820312 417.519531 132.238281 409.21875 123.253906 406.421875 C 124.136719 400.578125 125.414062 394.683594 127.035156 388.691406 C 146.972656 398.664062 170.054688 406.570312 194.949219 412.265625 C 200.695312 437.410156 208.554688 460.390625 218.226562 479.984375 C 195.738281 486.613281 175.011719 488.480469 158.316406 483.570312 Z M 184.539062 337.917969 C 177.566406 328.78125 170.839844 319.253906 164.503906 309.53125 C 170.738281 300.054688 177.46875 290.675781 184.539062 281.539062 C 183.410156 300.496094 183.460938 319.402344 184.539062 337.917969 Z M 158.609375 300.199219 C 146.480469 280.460938 136.316406 260.226562 129.589844 240.78125 C 133.417969 238.816406 137.445312 236.949219 141.621094 235.132812 C 145.648438 240.140625 151.785156 243.480469 158.757812 243.480469 C 170.9375 243.480469 180.855469 233.5625 180.855469 221.382812 L 180.855469 221.234375 C 184.589844 220.15625 188.46875 219.171875 192.542969 218.191406 C 189.402344 233.757812 187.191406 249.277344 185.867188 263.960938 C 176.289062 275.546875 167.058594 287.679688 158.609375 300.199219 Z M 158.855469 318.371094 C 167.546875 331.484375 176.78125 343.859375 185.863281 355.203125 C 187.386719 371.0625 189.648438 386.582031 192.640625 401.460938 C 169.414062 395.863281 148.101562 388.449219 129.832031 379.167969 C 136.414062 358.984375 146.480469 338.40625 158.855469 318.371094 Z M 254.910156 208.171875 C 282.460938 205.765625 310.796875 205.71875 338.34375 208.074219 C 360.582031 225.988281 379.4375 244.339844 398.601562 267.9375 C 401.332031 295.546875 401.546875 321.773438 398.796875 352.007812 C 378.65625 376.132812 359.515625 394.710938 338.933594 411.578125 C 311.089844 413.933594 282.507812 413.886719 254.863281 411.429688 C 231.644531 392.066406 212.917969 372.929688 195.589844 351.863281 C 193.082031 324.507812 192.886719 296.074219 195.34375 268.132812 C 214.152344 245.640625 234.777344 225.113281 254.910156 208.171875 Z M 197.210938 250.796875 C 198.632812 239.945312 200.648438 228.0625 203.296875 215.785156 C 214.496094 213.378906 226.035156 211.464844 237.871094 209.941406 C 224.464844 221.972656 210.617188 235.773438 197.210938 250.796875 Z M 268.414062 197.320312 C 277.253906 190.59375 286.636719 183.964844 296.359375 177.726562 C 306.082031 183.960938 315.511719 190.542969 324.449219 197.269531 C 305.835938 196.238281 287.027344 196.289062 268.414062 197.320312 Z M 356.121094 209.941406 C 367.957031 211.414062 379.496094 213.328125 390.742188 215.734375 C 393.148438 227.277344 395.0625 238.863281 396.585938 250.257812 C 383.9375 235.828125 371.910156 223.675781 356.121094 209.941406 Z M 396.929688 369.246094 C 395.457031 380.835938 393.542969 392.476562 391.136719 404.015625 C 379.792969 406.421875 368.105469 408.335938 356.21875 409.808594 C 371.882812 396.128906 383.222656 384.695312 396.929688 369.246094 Z M 324.890625 422.625 C 315.65625 429.601562 306.179688 436.230469 296.554688 442.367188 C 287.027344 436.132812 277.746094 429.453125 268.808594 422.578125 C 287.726562 423.761719 306.027344 423.734375 324.890625 422.625 Z M 237.625 409.5625 C 225.9375 408.089844 214.496094 406.175781 203.445312 403.867188 C 201.039062 392.621094 199.027344 381.03125 197.503906 369.148438 C 210.15625 383.726562 221.285156 395.078125 237.625 409.5625 Z M 205.851562 414.621094 C 220.585938 417.570312 235.855469 419.828125 251.425781 421.300781 C 262.71875 430.582031 274.847656 439.667969 287.421875 448.066406 C 267.382812 460.195312 247.101562 470.164062 227.804688 476.84375 C 218.867188 458.917969 211.5 437.800781 205.851562 414.621094 Z M 349.050781 504.6875 C 345.710938 502.625 341.78125 501.394531 337.558594 501.394531 C 325.382812 501.394531 315.460938 511.316406 315.460938 523.496094 C 315.460938 526.292969 316.050781 528.945312 316.984375 531.398438 C 310.5 534.25 303.824219 535.769531 297.144531 535.769531 C 268.246094 535.769531 246.332031 510.691406 232.273438 485.335938 C 253.144531 477.921875 274.996094 467.019531 296.308594 453.910156 C 317.472656 467.316406 339.671875 478.660156 361.621094 486.027344 C 357.792969 492.703125 353.570312 498.941406 349.050781 504.6875 Z M 366.433594 477.332031 C 346.105469 470.703125 325.382812 460.390625 305.492188 448.113281 C 318.164062 439.816406 330.585938 430.828125 342.421875 421.351562 C 358.136719 419.875 373.703125 417.617188 388.777344 414.574219 C 383.425781 436.917969 376.109375 458.476562 366.433594 477.332031 Z M 472.902344 437.164062 C 470.789062 453.222656 463.667969 465.597656 451.6875 474.140625 C 447.660156 468.347656 440.980469 464.464844 433.417969 464.464844 C 421.679688 464.464844 412.105469 473.746094 411.46875 485.335938 C 399.976562 485.289062 388.042969 483.421875 375.914062 480.132812 C 386.175781 459.605469 393.835938 436.277344 399.289062 412.214844 C 404.640625 410.988281 409.894531 409.664062 415.101562 408.238281 C 419.078125 414.132812 425.808594 418.011719 433.417969 418.011719 C 445.972656 418.011719 456.46875 407.359375 455.371094 394.191406 C 459.496094 392.375 463.523438 390.511719 467.351562 388.59375 C 472.558594 406.175781 474.765625 422.773438 472.902344 437.164062 Z M 411.664062 399.007812 C 408.324219 399.9375 404.984375 400.824219 401.597656 401.609375 C 404.640625 386.335938 406.800781 370.964844 408.273438 355.9375 C 417.65625 344.496094 426.835938 332.269531 435.332031 319.550781 C 447.464844 339.488281 457.53125 359.820312 464.308594 379.214844 C 460.527344 381.132812 456.5 382.949219 452.375 384.765625 C 448.542969 378.234375 441.519531 373.8125 433.417969 373.8125 C 420.488281 373.8125 409.589844 385.175781 411.664062 399.007812 Z M 409.550781 281.785156 C 416.621094 291.066406 423.351562 300.691406 429.636719 310.464844 C 423.351562 320.089844 416.625 329.46875 409.648438 338.457031 C 410.972656 316.394531 410.832031 300.1875 409.550781 281.785156 Z M 408.027344 263.761719 C 406.457031 248.933594 404.148438 233.464844 401.007812 218.042969 C 425.363281 223.886719 446.777344 231.546875 464.550781 240.582031 C 457.972656 260.867188 447.757812 281.492188 435.53125 301.230469 C 427.035156 288.316406 417.753906 275.746094 408.027344 263.761719 Z M 522.746094 305.996094 C 524.953125 330.894531 507.128906 355.101562 473.144531 374.453125 C 465.730469 353.433594 454.632812 331.582031 441.375 310.316406 C 454.683594 289.296875 465.925781 267.199219 473.292969 245.296875 C 502.90625 262.289062 520.78125 283.40625 522.746094 305.996094 Z M 428.898438 134.953125 C 443.582031 137.800781 454.925781 145.316406 462.734375 157.347656 C 456.890625 161.324219 453.011719 168.003906 453.011719 175.613281 C 453.011719 186.910156 461.554688 196.140625 472.507812 197.417969 C 472.3125 208.269531 470.496094 219.515625 467.449219 230.910156 C 448.199219 221.382812 425.117188 213.378906 398.699219 207.4375 C 393.246094 183.472656 385.734375 160.097656 375.914062 139.714844 C 395.210938 134.070312 413.480469 131.957031 428.898438 134.953125 Z M 388.386719 205.226562 C 373.605469 202.230469 358.28125 200.070312 342.617188 198.597656 C 331.027344 189.265625 318.652344 180.230469 305.886719 171.832031 C 325.773438 159.800781 346.742188 149.441406 366.875 142.566406 C 376.011719 161.273438 383.082031 182.882812 388.386719 205.226562 Z M 273.472656 90.019531 C 276.8125 98.023438 284.671875 103.671875 293.902344 103.671875 C 304.019531 103.671875 312.515625 96.796875 315.066406 87.464844 C 334.464844 94.683594 350.082031 111.675781 362.40625 133.972656 C 340.507812 141.582031 317.917969 152.878906 296.75 165.941406 C 275.535156 152.730469 253.488281 141.535156 232.175781 134.070312 C 243.078125 114.574219 256.679688 98.566406 273.472656 90.019531 Z M 227.605469 142.8125 C 247.25 149.734375 267.679688 160.046875 287.222656 171.980469 C 274.257812 180.476562 262.03125 189.5625 250.980469 198.644531 C 235.464844 200.121094 220.289062 202.328125 205.703125 205.226562 C 210.863281 183.960938 218.082031 162.0625 227.605469 142.8125 Z M 137.445312 150.175781 C 156.597656 130.976562 185.914062 130.289062 217.980469 139.765625 C 207.914062 160.292969 200.253906 183.765625 194.851562 207.535156 C 189.007812 208.859375 183.605469 210.234375 178.550781 211.660156 C 174.914062 204.34375 167.449219 199.285156 158.757812 199.285156 C 146.578125 199.285156 136.660156 209.15625 136.660156 221.382812 C 136.660156 223.054688 136.90625 224.722656 137.25 226.292969 C 133.566406 227.914062 129.980469 229.585938 126.542969 231.304688 C 117.066406 198.792969 118.195312 169.378906 137.445312 150.175781 Z M 120.796875 245.542969 C 128.457031 266.808594 139.851562 288.5625 152.816406 309.039062 C 139.410156 330.15625 128.261719 352.207031 120.996094 374.355469 C 87.796875 355.300781 70.167969 331.828125 71.296875 307.863281 C 72.328125 285.222656 90.054688 263.273438 120.796875 245.542969 Z M 120.796875 245.542969 " fill-opacity="1" fill-rule="nonzero"/></g><path fill="#ffffff" d="M 396.257812 105.929688 C 392.980469 106.292969 389.640625 106.765625 386.246094 107.351562 L 387.914062 117.03125 C 391.109375 116.480469 394.253906 116.03125 397.34375 115.691406 Z M 396.257812 105.929688 " fill-opacity="1" fill-rule="nonzero"/><path fill="#ffffff" d="M 416.578125 105.089844 C 413.257812 104.976562 409.855469 104.996094 406.382812 105.144531 L 406.804688 114.957031 C 410.019531 114.816406 413.171875 114.804688 416.25 114.90625 Z M 416.578125 105.089844 " fill-opacity="1" fill-rule="nonzero"/><path fill="#ffffff" d="M 446.921875 110.394531 L 443.746094 119.6875 C 446.699219 120.699219 449.566406 121.875 452.277344 123.191406 L 456.566406 114.351562 C 453.496094 112.863281 450.253906 111.53125 446.921875 110.394531 Z M 446.921875 110.394531 " fill-opacity="1" fill-rule="nonzero"/><path fill="#ffffff" d="M 436.945312 107.601562 C 433.679688 106.875 430.265625 106.292969 426.789062 105.871094 L 425.609375 115.621094 C 428.765625 116.003906 431.855469 116.53125 434.804688 117.1875 Z M 436.945312 107.601562 " fill-opacity="1" fill-rule="nonzero"/><path fill="#ffffff" d="M 473.984375 125.859375 C 471.359375 123.566406 468.554688 121.433594 465.648438 119.515625 L 460.238281 127.714844 C 462.78125 129.386719 465.230469 131.253906 467.519531 133.253906 Z M 473.984375 125.859375 " fill-opacity="1" fill-rule="nonzero"/><path fill="#ffffff" d="M 171.859375 514.378906 C 175.171875 514.652344 178.609375 514.789062 182.070312 514.789062 L 182.070312 504.96875 C 178.875 504.96875 175.710938 504.84375 172.664062 504.589844 Z M 171.859375 514.378906 " fill-opacity="1" fill-rule="nonzero"/><path fill="#ffffff" d="M 151.59375 510.742188 C 154.832031 511.671875 158.21875 512.457031 161.664062 513.070312 L 163.378906 503.394531 C 160.273438 502.847656 157.222656 502.140625 154.316406 501.300781 Z M 151.59375 510.742188 " fill-opacity="1" fill-rule="nonzero"/><path fill="#ffffff" d="M 116.597656 490.480469 C 118.867188 492.734375 121.273438 494.863281 123.757812 496.796875 L 129.792969 489.039062 C 127.621094 487.355469 125.515625 485.496094 123.535156 483.519531 Z M 116.597656 490.480469 " fill-opacity="1" fill-rule="nonzero"/><path fill="#ffffff" d="M 141.800781 507.289062 L 145.597656 498.234375 C 142.753906 497.039062 139.980469 495.664062 137.367188 494.148438 L 132.4375 502.640625 C 135.417969 504.371094 138.5625 505.933594 141.800781 507.289062 Z M 141.800781 507.289062 " fill-opacity="1" fill-rule="nonzero"/><path fill="#ffffff" d="M 93.292969 208.039062 C 93.613281 211.328125 94.03125 214.667969 94.558594 218.058594 L 104.265625 216.546875 C 103.765625 213.347656 103.367188 210.191406 103.066406 207.082031 Z M 93.292969 208.039062 " fill-opacity="1" fill-rule="nonzero"/><path fill="#ffffff" d="M 98.746094 157.429688 L 107.953125 160.84375 C 109.039062 157.914062 110.292969 155.089844 111.679688 152.445312 L 102.980469 147.886719 C 101.402344 150.898438 99.972656 154.109375 98.746094 157.429688 Z M 98.746094 157.429688 " fill-opacity="1" fill-rule="nonzero"/><path fill="#ffffff" d="M 122.234375 137.582031 L 115.097656 130.832031 C 112.703125 133.363281 110.464844 136.09375 108.4375 138.949219 L 116.445312 144.636719 C 118.207031 142.152344 120.15625 139.78125 122.234375 137.582031 Z M 122.234375 137.582031 " fill-opacity="1" fill-rule="nonzero"/><path fill="#ffffff" d="M 93.765625 177.480469 L 103.492188 178.851562 C 103.933594 175.710938 104.523438 172.628906 105.242188 169.699219 L 95.707031 167.355469 C 94.90625 170.605469 94.253906 174.011719 93.765625 177.480469 Z M 93.765625 177.480469 " fill-opacity="1" fill-rule="nonzero"/><path fill="#ffffff" d="M 92.625 194.3125 C 92.628906 195.488281 92.644531 196.679688 92.671875 197.878906 L 102.496094 197.632812 C 102.464844 196.503906 102.453125 195.382812 102.445312 194.289062 C 102.445312 192.226562 102.5 190.191406 102.601562 188.183594 L 92.789062 187.691406 C 92.679688 189.863281 92.625 192.0625 92.625 194.3125 Z M 92.625 194.3125 " fill-opacity="1" fill-rule="nonzero"/><path fill="#ffffff" d="M 502.101562 425.117188 C 502.101562 423.332031 502.066406 421.527344 501.988281 419.703125 L 492.179688 420.105469 C 492.246094 421.796875 492.277344 423.464844 492.277344 425.117188 C 492.277344 426.605469 492.25 428.078125 492.195312 429.539062 L 502.007812 429.90625 C 502.070312 428.328125 502.101562 426.730469 502.101562 425.117188 Z M 502.101562 425.117188 " fill-opacity="1" fill-rule="nonzero"/><path fill="#ffffff" d="M 501.230469 409.582031 C 500.875 406.296875 500.40625 402.957031 499.828125 399.558594 L 490.148438 401.210938 C 490.691406 404.40625 491.132812 407.550781 491.46875 410.640625 Z M 501.230469 409.582031 " fill-opacity="1" fill-rule="nonzero"/><path fill="#ffffff" d="M 496.519531 460.234375 L 487.253906 456.980469 C 486.226562 459.90625 485.023438 462.761719 483.679688 465.472656 L 492.476562 469.839844 C 494 466.769531 495.363281 463.535156 496.519531 460.234375 Z M 496.519531 460.234375 " fill-opacity="1" fill-rule="nonzero"/><path fill="#ffffff" d="M 473.472656 480.636719 L 480.8125 487.164062 C 483.128906 484.554688 485.289062 481.773438 487.234375 478.886719 L 479.078125 473.402344 C 477.386719 475.925781 475.5 478.359375 473.472656 480.636719 Z M 473.472656 480.636719 " fill-opacity="1" fill-rule="nonzero"/><path fill="#ffffff" d="M 501.183594 440.121094 L 491.4375 438.894531 C 491.046875 442.015625 490.5 445.105469 489.820312 448.074219 L 499.390625 450.273438 C 500.148438 446.984375 500.746094 443.570312 501.183594 440.121094 Z M 501.183594 440.121094 " fill-opacity="1" fill-rule="nonzero"/><path fill="#ffffff" d="M 361.15625 250.277344 C 361.15625 250.980469 361.058594 251.6875 360.859375 252.386719 C 360.660156 253.089844 360.367188 253.789062 359.972656 254.480469 C 359.578125 255.171875 359.089844 255.855469 358.503906 256.53125 C 357.914062 257.207031 357.238281 257.871094 356.464844 258.523438 C 355.691406 259.175781 354.828125 259.8125 353.878906 260.433594 C 352.925781 261.054688 351.886719 261.660156 350.765625 262.25 C 349.644531 262.835938 348.445312 263.402344 347.164062 263.945312 C 345.882812 264.492188 344.527344 265.015625 343.101562 265.511719 C 341.671875 266.011719 340.179688 266.484375 338.617188 266.933594 C 337.054688 267.382812 335.4375 267.800781 333.757812 268.195312 C 332.078125 268.585938 330.347656 268.949219 328.570312 269.28125 C 326.789062 269.613281 324.964844 269.914062 323.101562 270.183594 C 321.234375 270.453125 319.335938 270.691406 317.402344 270.898438 C 315.472656 271.101562 313.515625 271.273438 311.535156 271.410156 C 309.554688 271.550781 307.558594 271.652344 305.550781 271.722656 C 303.539062 271.789062 301.527344 271.824219 299.507812 271.824219 C 297.488281 271.824219 295.472656 271.789062 293.464844 271.722656 C 291.457031 271.652344 289.460938 271.550781 287.480469 271.410156 C 285.5 271.273438 283.542969 271.101562 281.613281 270.898438 C 279.679688 270.691406 277.78125 270.453125 275.914062 270.183594 C 274.050781 269.914062 272.226562 269.613281 270.445312 269.28125 C 268.664062 268.949219 266.9375 268.585938 265.257812 268.195312 C 263.578125 267.800781 261.957031 267.382812 260.398438 266.933594 C 258.835938 266.484375 257.34375 266.011719 255.914062 265.511719 C 254.488281 265.015625 253.132812 264.492188 251.851562 263.945312 C 250.570312 263.402344 249.371094 262.835938 248.25 262.25 C 247.125 261.660156 246.089844 261.054688 245.136719 260.433594 C 244.1875 259.8125 243.324219 259.175781 242.550781 258.523438 C 241.777344 257.871094 241.097656 257.207031 240.511719 256.53125 C 239.925781 255.855469 239.4375 255.171875 239.042969 254.480469 C 238.648438 253.789062 238.351562 253.089844 238.15625 252.386719 C 237.957031 251.6875 237.859375 250.980469 237.859375 250.277344 C 237.859375 249.570312 237.957031 248.867188 238.15625 248.164062 C 238.351562 247.460938 238.648438 246.765625 239.042969 246.070312 C 239.4375 245.378906 239.925781 244.695312 240.511719 244.019531 C 241.097656 243.34375 241.777344 242.679688 242.550781 242.027344 C 243.324219 241.378906 244.1875 240.738281 245.136719 240.117188 C 246.089844 239.496094 247.125 238.890625 248.25 238.304688 C 249.371094 237.714844 250.570312 237.152344 251.851562 236.605469 C 253.132812 236.058594 254.488281 235.535156 255.914062 235.039062 C 257.34375 234.539062 258.835938 234.066406 260.398438 233.617188 C 261.957031 233.171875 263.578125 232.75 265.257812 232.359375 C 266.9375 231.964844 268.664062 231.605469 270.445312 231.269531 C 272.226562 230.9375 274.050781 230.636719 275.914062 230.367188 C 277.78125 230.097656 279.679688 229.859375 281.613281 229.652344 C 283.542969 229.449219 285.5 229.277344 287.480469 229.140625 C 289.460938 229.003906 291.457031 228.898438 293.464844 228.832031 C 295.472656 228.761719 297.488281 228.726562 299.507812 228.726562 C 301.527344 228.726562 303.539062 228.761719 305.550781 228.832031 C 307.558594 228.898438 309.554688 229.003906 311.535156 229.140625 C 313.515625 229.277344 315.472656 229.449219 317.402344 229.652344 C 319.335938 229.859375 321.234375 230.097656 323.101562 230.367188 C 324.964844 230.636719 326.789062 230.9375 328.570312 231.269531 C 330.347656 231.605469 332.078125 231.964844 333.757812 232.359375 C 335.4375 232.75 337.054688 233.171875 338.617188 233.617188 C 340.179688 234.066406 341.671875 234.539062 343.101562 235.039062 C 344.527344 235.535156 345.882812 236.058594 347.164062 236.605469 C 348.445312 237.152344 349.644531 237.714844 350.765625 238.304688 C 351.886719 238.890625 352.925781 239.496094 353.878906 240.117188 C 354.828125 240.738281 355.691406 241.378906 356.464844 242.027344 C 357.238281 242.679688 357.914062 243.34375 358.503906 244.019531 C 359.089844 244.695312 359.578125 245.378906 359.972656 246.070312 C 360.367188 246.765625 360.660156 247.460938 360.859375 248.164062 C 361.058594 248.867188 361.15625 249.570312 361.15625 250.277344 Z M 361.15625 250.277344 " fill-opacity="1" fill-rule="nonzero"/><path fill="#ffffff" d="M 299.507812 377.667969 C 333.554688 377.667969 361.15625 368.019531 361.15625 356.121094 L 361.15625 313.019531 C 361.15625 324.921875 333.554688 334.570312 299.507812 334.570312 C 265.460938 334.570312 237.859375 324.921875 237.859375 313.019531 L 237.859375 356.121094 C 237.859375 368.019531 265.460938 377.667969 299.507812 377.667969 Z M 325.800781 348.511719 L 333.011719 348.511719 L 333.011719 358.332031 L 325.800781 358.332031 Z M 306.304688 348.511719 L 313.519531 348.511719 L 313.519531 358.332031 L 306.304688 358.332031 Z M 285.5 348.511719 L 292.707031 348.511719 L 292.707031 358.332031 L 285.5 358.332031 Z M 266.003906 348.511719 L 273.214844 348.511719 L 273.214844 358.332031 L 266.003906 358.332031 Z M 266.003906 348.511719 " fill-opacity="1" fill-rule="nonzero"/><path fill="#ffffff" d="M 299.507812 324.75 C 333.554688 324.75 361.15625 315.101562 361.15625 303.199219 L 361.15625 260.097656 C 361.15625 272 333.554688 281.648438 299.507812 281.648438 C 265.460938 281.648438 237.859375 272 237.859375 260.097656 L 237.859375 303.199219 C 237.859375 315.101562 265.460938 324.75 299.507812 324.75 Z M 325.800781 295.589844 L 333.011719 295.589844 L 333.011719 305.410156 L 325.800781 305.410156 Z M 306.304688 295.589844 L 313.519531 295.589844 L 313.519531 305.410156 L 306.304688 305.410156 Z M 285.5 295.589844 L 292.707031 295.589844 L 292.707031 305.410156 L 285.5 305.410156 Z M 266.003906 295.589844 L 273.214844 295.589844 L 273.214844 305.410156 L 266.003906 305.410156 Z M 266.003906 295.589844 " fill-opacity="1" fill-rule="nonzero"/></svg>