<svg xmlns="http://www.w3.org/2000/svg" xmlns:xlink="http://www.w3.org/1999/xlink" width="793" zoomAndPan="magnify" viewBox="0 0 594.95996 842.24997" height="1122" preserveAspectRatio="xMidYMid meet" version="1.0"><defs><clipPath id="39bcc42338"><path d="M 178.667969 297.625 L 416.207031 297.625 L 416.207031 543.40625 L 178.667969 543.40625 Z M 178.667969 297.625 " clip-rule="nonzero"/></clipPath></defs><g clip-path="url(#39bcc42338)"><path fill="#000000" d="M 300.015625 535.96875 L 282.269531 535.96875 L 282.269531 520.496094 L 300.015625 520.496094 Z M 303.734375 513.050781 L 278.550781 513.050781 C 276.492188 513.050781 274.828125 514.714844 274.828125 516.773438 L 274.828125 539.691406 C 274.828125 541.75 276.492188 543.417969 278.550781 543.417969 L 303.734375 543.417969 C 305.789062 543.417969 307.457031 541.75 307.457031 539.691406 L 307.457031 516.773438 C 307.457031 514.714844 305.789062 513.050781 303.734375 513.050781 Z M 251.933594 535.96875 L 234.1875 535.96875 L 234.1875 511.332031 L 251.933594 511.332031 Z M 255.652344 503.882812 L 230.46875 503.882812 C 228.414062 503.882812 226.746094 505.546875 226.746094 507.605469 L 226.746094 539.691406 C 226.746094 541.75 228.414062 543.417969 230.46875 543.417969 L 255.652344 543.417969 C 257.707031 543.417969 259.371094 541.75 259.371094 539.691406 L 259.371094 507.605469 C 259.371094 505.546875 257.703125 503.882812 255.652344 503.882812 Z M 321.632812 380.988281 C 313.410156 376.089844 304.121094 373.4375 294.488281 373.253906 L 293.855469 360.066406 C 306.398438 360.144531 318.507812 363.601562 329.113281 370.113281 Z M 293.433594 352.617188 C 292.238281 352.617188 291.007812 352.648438 289.773438 352.707031 C 287.722656 352.804688 286.140625 354.558594 286.238281 356.609375 L 287.230469 377.207031 C 287.328125 379.261719 289.078125 380.847656 291.125 380.75 C 301.632812 380.261719 311.910156 383.148438 320.539062 389.132812 C 322.222656 390.296875 324.546875 389.882812 325.714844 388.179688 L 337.40625 371.195312 C 338.574219 369.5 338.144531 367.183594 336.453125 366.015625 C 323.769531 357.25 308.890625 352.617188 293.433594 352.617188 Z M 381.578125 535.96875 C 373.53125 535.96875 366.980469 529.414062 366.980469 521.355469 C 366.980469 513.300781 373.53125 506.746094 381.578125 506.746094 C 389.621094 506.746094 396.167969 513.300781 396.167969 521.355469 C 396.167969 529.414062 389.621094 535.96875 381.578125 535.96875 Z M 225.03125 428.539062 C 225.03125 466.289062 255.714844 497.003906 293.433594 497.003906 C 311.660156 497.003906 329.136719 489.6875 341.9375 476.800781 L 332.09375 468.015625 C 321.804688 478.105469 307.914062 483.828125 293.433594 483.828125 C 262.972656 483.828125 238.195312 459.023438 238.195312 428.539062 C 238.195312 404.804688 253.371094 383.800781 275.527344 376.21875 L 272.105469 363.464844 C 244.207031 372.605469 225.03125 398.847656 225.03125 428.539062 Z M 376.996094 305.058594 C 385.042969 305.058594 391.589844 311.613281 391.589844 319.671875 C 391.589844 327.726562 385.046875 334.28125 376.996094 334.28125 C 368.949219 334.28125 362.402344 327.726562 362.402344 319.671875 C 362.402344 311.613281 368.949219 305.058594 376.996094 305.058594 Z M 381.578125 499.296875 C 370.691406 499.296875 361.632812 507.238281 359.859375 517.632812 L 342.136719 517.632812 L 325.605469 497.261719 C 334.796875 492.949219 343.140625 486.792969 350.046875 479.042969 C 351.410156 477.507812 351.277344 475.152344 349.746094 473.785156 L 334.359375 460.0625 C 332.828125 458.691406 330.476562 458.832031 329.109375 460.363281 C 320.042969 470.539062 307.039062 476.378906 293.433594 476.378906 C 267.078125 476.378906 245.636719 454.917969 245.636719 428.535156 C 245.636719 406.921875 260.1875 387.917969 281.023438 382.324219 C 283.003906 381.792969 284.183594 379.75 283.652344 377.761719 L 278.296875 357.839844 C 277.765625 355.851562 275.726562 354.675781 273.742188 355.207031 C 267.847656 356.789062 262.269531 359.050781 257.085938 361.890625 L 257.085938 337.816406 L 275.246094 323.675781 L 355.332031 323.675781 C 357.222656 333.933594 366.214844 341.730469 377 341.730469 C 389.148438 341.730469 399.03125 331.835938 399.03125 319.671875 C 399.03125 307.507812 389.148438 297.613281 377 297.613281 C 366.015625 297.613281 356.886719 305.695312 355.230469 316.226562 L 273.972656 316.226562 C 273.144531 316.226562 272.339844 316.503906 271.6875 317.011719 L 251.078125 333.054688 C 250.175781 333.761719 249.644531 334.84375 249.644531 335.996094 L 249.644531 366.539062 C 229.996094 380.480469 217.589844 403.394531 217.589844 428.539062 C 217.589844 470.398438 251.613281 504.453125 293.433594 504.453125 C 302.019531 504.453125 310.449219 502.984375 318.402344 500.203125 L 337.476562 523.707031 C 338.1875 524.578125 339.242188 525.082031 340.367188 525.082031 L 359.859375 525.082031 C 361.636719 535.480469 370.695312 543.417969 381.578125 543.417969 C 393.722656 543.417969 403.609375 533.519531 403.609375 521.355469 C 403.609375 509.195312 393.722656 499.296875 381.578125 499.296875 Z M 394.113281 403.035156 C 386.066406 403.035156 379.515625 396.484375 379.515625 388.429688 C 379.515625 380.371094 386.066406 373.816406 394.113281 373.816406 C 402.164062 373.816406 408.710938 380.371094 408.710938 388.429688 C 408.710938 396.484375 402.164062 403.035156 394.113281 403.035156 Z M 354.753906 458.882812 L 343.265625 452.398438 C 352.484375 433.109375 349.757812 410.109375 336.175781 393.519531 L 345.796875 384.492188 C 363.308594 405.3125 366.765625 434.589844 354.753906 458.882812 Z M 394.113281 366.367188 C 381.960938 366.367188 372.074219 376.265625 372.074219 388.429688 C 372.074219 399.320312 380.007812 408.390625 390.390625 410.167969 L 390.390625 437.417969 L 368.738281 437.417969 C 371.359375 415.164062 364.109375 392.96875 348.753906 376.609375 C 347.34375 375.109375 344.992188 375.035156 343.492188 376.4375 L 328.464844 390.550781 C 326.960938 391.957031 326.886719 394.316406 328.296875 395.816406 C 342.617188 411.050781 345.289062 433.957031 335.066406 452.039062 C 334.054688 453.828125 334.6875 456.105469 336.472656 457.117188 L 354.429688 467.25 C 356.191406 468.253906 358.472656 467.644531 359.492188 465.84375 C 363.191406 459.285156 365.878906 452.203125 367.488281 444.867188 L 394.113281 444.867188 C 396.171875 444.867188 397.832031 443.199219 397.832031 441.140625 L 397.832031 410.167969 C 408.21875 408.390625 416.148438 399.320312 416.148438 388.429688 C 416.148438 376.265625 406.265625 366.367188 394.113281 366.367188 Z M 178.671875 437.472656 C 178.671875 435.417969 180.335938 433.75 182.390625 433.75 L 203.542969 433.75 C 205.597656 433.75 207.261719 435.417969 207.261719 437.472656 C 207.261719 439.53125 205.597656 441.199219 203.542969 441.199219 L 182.390625 441.199219 C 180.335938 441.199219 178.671875 439.53125 178.671875 437.472656 Z M 178.671875 410.890625 C 178.671875 408.832031 180.335938 407.164062 182.390625 407.164062 L 203.542969 407.164062 C 205.597656 407.164062 207.261719 408.832031 207.261719 410.890625 C 207.261719 412.945312 205.597656 414.613281 203.542969 414.613281 L 182.390625 414.613281 C 180.335938 414.613281 178.671875 412.945312 178.671875 410.890625 Z M 178.671875 384.300781 C 178.671875 382.246094 180.335938 380.578125 182.390625 380.578125 L 203.542969 380.578125 C 205.597656 380.578125 207.261719 382.246094 207.261719 384.300781 C 207.261719 386.359375 205.597656 388.027344 203.542969 388.027344 L 182.390625 388.027344 C 180.335938 388.027344 178.671875 386.359375 178.671875 384.300781 Z M 178.671875 357.714844 C 178.671875 355.660156 180.335938 353.992188 182.390625 353.992188 L 225.886719 353.992188 C 227.941406 353.992188 229.609375 355.660156 229.609375 357.714844 C 229.609375 359.773438 227.941406 361.441406 225.886719 361.441406 L 182.390625 361.441406 C 180.335938 361.441406 178.671875 359.773438 178.671875 357.714844 Z M 178.671875 331.132812 C 178.671875 329.074219 180.335938 327.40625 182.390625 327.40625 L 225.886719 327.40625 C 227.941406 327.40625 229.609375 329.074219 229.609375 331.132812 C 229.609375 333.1875 227.941406 334.855469 225.886719 334.855469 L 182.390625 334.855469 C 180.335938 334.855469 178.671875 333.1875 178.671875 331.132812 Z M 203.855469 535.96875 L 186.109375 535.96875 L 186.109375 467.785156 L 203.855469 467.785156 Z M 207.574219 460.335938 L 182.390625 460.335938 C 180.339844 460.335938 178.671875 462.003906 178.671875 464.0625 L 178.671875 539.691406 C 178.671875 541.75 180.335938 543.417969 182.390625 543.417969 L 207.574219 543.417969 C 209.628906 543.417969 211.296875 541.75 211.296875 539.691406 L 211.296875 464.0625 C 211.296875 462.003906 209.628906 460.335938 207.574219 460.335938 Z M 207.574219 460.335938 " fill-opacity="1" fill-rule="evenodd"/></g><path fill="#ffffff" d="M 283.621094 197.402344 C 282 194.640625 278.464844 193.699219 275.699219 195.277344 L 261.613281 203.28125 C 256.984375 199.675781 251.941406 196.792969 246.539062 194.652344 L 246.539062 178.835938 C 246.539062 175.613281 243.925781 172.996094 240.703125 172.996094 L 206.554688 172.996094 C 203.332031 172.996094 200.714844 175.613281 200.714844 178.835938 L 200.714844 194.652344 C 195.316406 196.792969 190.269531 199.675781 185.640625 203.28125 L 171.554688 195.277344 C 168.773438 193.699219 165.253906 194.640625 163.632812 197.402344 L 146.558594 226.488281 C 145.769531 227.839844 145.550781 229.445312 145.953125 230.957031 C 146.359375 232.46875 147.351562 233.753906 148.710938 234.523438 L 162.664062 242.449219 C 161.839844 248.164062 161.839844 253.761719 162.664062 259.480469 C 162.664062 259.480469 148.710938 267.402344 148.710938 267.402344 C 145.933594 268.910156 144.898438 272.738281 146.558594 275.4375 C 146.558594 275.4375 163.632812 304.527344 163.632812 304.527344 C 165.253906 307.28125 168.773438 308.214844 171.554688 306.652344 C 171.554688 306.652344 185.640625 298.648438 185.640625 298.648438 C 190.269531 302.25 195.316406 305.132812 200.714844 307.269531 L 200.714844 323.09375 C 200.714844 326.316406 203.332031 328.929688 206.554688 328.929688 L 240.703125 328.929688 C 243.925781 328.929688 246.539062 326.316406 246.539062 323.09375 L 246.539062 307.269531 C 251.9375 305.132812 256.984375 302.25 261.613281 298.648438 L 275.699219 306.652344 C 278.464844 308.214844 282 307.28125 283.621094 304.527344 L 300.691406 275.433594 C 301.484375 274.089844 301.699219 272.480469 301.296875 270.96875 C 300.890625 269.457031 299.898438 268.175781 298.542969 267.402344 C 298.542969 267.402344 284.585938 259.480469 284.585938 259.480469 C 285.410156 253.78125 285.410156 248.144531 284.585938 242.449219 C 284.585938 242.449219 298.542969 234.523438 298.542969 234.523438 C 301.320312 233.019531 302.355469 229.1875 300.691406 226.492188 C 300.691406 226.492188 283.621094 197.402344 283.621094 197.402344 Z M 275.222656 234.339844 C 269.378906 237.976562 274.398438 245.578125 273.53125 250.960938 C 274.414062 256.351562 269.363281 263.949219 275.222656 267.589844 C 275.222656 267.589844 287.628906 274.632812 287.628906 274.632812 C 287.628906 274.632812 276.464844 293.652344 276.464844 293.652344 L 263.871094 286.5 C 261.691406 285.277344 258.96875 285.550781 257.105469 287.21875 C 251.757812 291.980469 245.644531 295.46875 238.941406 297.585938 C 236.511719 298.355469 234.863281 300.609375 234.863281 303.15625 L 234.863281 317.253906 L 212.390625 317.253906 L 212.390625 303.15625 C 212.390625 300.609375 210.742188 298.355469 208.3125 297.585938 C 201.605469 295.464844 195.492188 291.976562 190.148438 287.21875 C 188.28125 285.550781 185.554688 285.277344 183.382812 286.5 L 170.789062 293.652344 L 159.625 274.632812 L 172.03125 267.589844 C 174.25 266.328125 175.394531 263.765625 174.847656 261.273438 C 173.347656 254.339844 173.347656 247.585938 174.847656 240.65625 C 175.394531 238.160156 174.25 235.601562 172.027344 234.339844 L 159.625 227.296875 C 159.625 227.296875 170.789062 208.273438 170.789062 208.273438 L 183.382812 215.425781 C 185.554688 216.65625 188.28125 216.371094 190.148438 214.707031 C 195.492188 209.949219 201.605469 206.460938 208.316406 204.332031 C 210.742188 203.566406 212.390625 201.316406 212.390625 198.769531 L 212.390625 184.671875 L 234.863281 184.671875 L 234.863281 198.769531 C 234.863281 201.316406 236.511719 203.566406 238.9375 204.332031 C 245.644531 206.457031 251.757812 209.949219 257.105469 214.707031 C 258.96875 216.371094 261.691406 216.65625 263.871094 215.425781 C 263.871094 215.425781 276.464844 208.269531 276.464844 208.269531 C 276.464844 208.269531 287.625 227.296875 287.625 227.296875 Z M 275.222656 234.339844 " fill-opacity="1" fill-rule="nonzero"/><path fill="#ffffff" d="M 223.625 219.144531 C 181.175781 220.484375 181.1875 281.449219 223.625 282.785156 C 266.078125 281.441406 266.070312 220.480469 223.625 219.144531 Z M 223.625 271.109375 C 196.667969 270.40625 196.671875 231.515625 223.625 230.820312 C 250.589844 231.519531 250.582031 270.410156 223.625 271.109375 Z M 223.625 271.109375 " fill-opacity="1" fill-rule="nonzero"/><path fill="#ffffff" d="M 280.042969 470.273438 C 278.210938 471.636719 275.964844 472.390625 273.722656 472.390625 L 159.300781 472.390625 C 153.378906 472.390625 148.5625 467.609375 148.5625 461.730469 C 147.671875 454.5625 151.550781 447.632812 159.382812 447.558594 C 159.382812 447.558594 229.199219 447.558594 229.199219 447.558594 C 232.421875 447.558594 235.035156 444.945312 235.035156 441.722656 C 235.035156 438.5 232.421875 435.886719 229.199219 435.886719 L 159.382812 435.886719 C 151.671875 435.824219 147.660156 428.976562 148.5625 421.875 C 148.5625 415.953125 153.378906 411.136719 159.300781 411.136719 L 202.964844 411.136719 C 210.59375 411.097656 210.601562 399.496094 202.964844 399.460938 C 202.964844 399.460938 165.140625 399.460938 165.140625 399.460938 C 165.140625 399.460938 165.140625 383.035156 165.140625 383.035156 C 165.140625 357.191406 154.960938 333.199219 137.207031 317.207031 C 59.683594 247.78125 109.433594 121.195312 212.867188 117.921875 C 270.21875 116.183594 319.992188 154.691406 331.363281 209.332031 C 333.070312 216.898438 344.253906 214.40625 342.796875 206.949219 C 308.28125 59.527344 92.960938 80.78125 87.535156 231.921875 C 87.304688 267.503906 102.5625 301.757812 129.398438 325.882812 C 144.691406 339.664062 153.464844 360.492188 153.464844 383.035156 L 153.464844 400.328125 C 142.640625 403.109375 135.777344 413.84375 136.886719 425.144531 C 136.886719 431.738281 139.8125 437.617188 144.375 441.722656 C 138.785156 446.480469 136.285156 454.191406 136.886719 461.730469 C 136.886719 474.046875 146.941406 484.066406 159.300781 484.066406 L 173.277344 484.066406 L 177.328125 504.332031 C 181 522.699219 197.488281 536.035156 216.539062 536.035156 C 235.585938 536.035156 252.078125 522.699219 255.75 504.332031 L 259.796875 484.066406 C 267.863281 483.714844 280.363281 485.644531 287.007812 479.644531 C 293.085938 475.011719 286.21875 465.769531 280.046875 470.273438 Z M 244.300781 502.046875 C 238.234375 531.507812 194.835938 531.503906 188.773438 502.042969 C 188.773438 502.046875 185.1875 484.09375 185.1875 484.09375 L 247.886719 484.09375 Z M 244.300781 502.046875 " fill-opacity="1" fill-rule="nonzero"/><path fill="#ffffff" d="M 232.539062 336.726562 C 229.015625 336.523438 226.636719 339.1875 226.550781 342.414062 C 225.859375 369.988281 236.226562 395.839844 255.746094 415.191406 C 317.941406 477.484375 426.800781 433.066406 426.507812 344.824219 C 427.960938 280.894531 362.640625 231.261719 301.210938 248.414062 C 293.824219 250.402344 296.734375 261.558594 304.136719 259.714844 C 334.402344 251.886719 366.929688 260.632812 388.996094 282.554688 C 423.191406 315.304688 423.246094 374.203125 388.996094 406.921875 C 354.539062 441.234375 298.449219 441.246094 263.976562 406.910156 C 246.753906 389.832031 237.613281 367.035156 238.226562 342.710938 C 238.308594 339.488281 235.761719 336.808594 232.539062 336.726562 Z M 232.539062 336.726562 " fill-opacity="1" fill-rule="nonzero"/><path fill="#ffffff" d="M 520.183594 509.367188 L 427.066406 416.644531 C 462.375 367.882812 457.265625 300.382812 414.125 257.476562 C 388.355469 231.859375 352.875 218.835938 316.609375 221.703125 C 313.394531 221.957031 311 224.769531 311.253906 227.984375 C 311.507812 231.199219 314.375 233.539062 317.539062 233.339844 C 350.3125 230.710938 382.542969 242.542969 405.890625 265.753906 C 455.460938 313.558594 447.402344 398.96875 389.96875 436.910156 C 316.265625 488.226562 211.738281 433.007812 214.253906 342.6875 C 214.355469 335.117188 203.035156 334.742188 202.578125 342.4375 C 199.839844 439.921875 310.707031 501.558594 392.472656 449.132812 C 392.46875 449.132812 486.609375 542.875 486.609375 542.875 C 491.253906 547.503906 497.355469 549.816406 503.445312 549.816406 C 523.875 550.386719 535.359375 523.640625 520.183594 509.367188 Z M 511.941406 534.660156 C 507.246094 539.324219 499.578125 539.3125 494.847656 534.605469 L 402.199219 442.347656 C 406.359375 439.171875 410.402344 435.808594 414.140625 432.074219 C 416.296875 429.910156 418.175781 427.898438 419.875 425.957031 L 511.941406 517.640625 C 516.664062 522.152344 516.664062 530.148438 511.941406 534.660156 Z M 511.941406 534.660156 " fill-opacity="1" fill-rule="nonzero"/><path fill="#ffffff" d="M 295.65625 343.121094 L 274.804688 343.121094 C 271.582031 343.121094 268.964844 345.734375 268.964844 348.957031 L 268.964844 374.597656 L 263.730469 374.597656 C 256.140625 374.613281 256.0625 386.246094 263.730469 386.273438 C 293.5625 386.273438 327.441406 386.273438 357.296875 386.273438 C 364.375 386.191406 382.332031 386.332031 389.230469 386.273438 C 396.828125 386.234375 396.894531 374.640625 389.230469 374.597656 C 389.230469 374.597656 383.992188 374.597656 383.992188 374.597656 L 383.992188 309.085938 C 383.992188 305.863281 381.378906 303.25 378.15625 303.25 L 357.296875 303.25 C 354.074219 303.25 351.460938 305.863281 351.460938 309.085938 L 351.460938 374.597656 L 342.742188 374.597656 L 342.742188 328.671875 C 342.742188 325.449219 340.128906 322.832031 336.90625 322.832031 L 316.054688 322.832031 C 312.832031 322.832031 310.21875 325.449219 310.21875 328.671875 L 310.21875 374.597656 L 301.496094 374.597656 L 301.496094 348.957031 C 301.496094 345.734375 298.878906 343.121094 295.65625 343.121094 Z M 280.640625 374.597656 L 280.640625 354.796875 L 289.820312 354.796875 L 289.820312 374.597656 Z M 363.136719 314.925781 L 372.320312 314.925781 L 372.320312 374.597656 L 363.136719 374.597656 Z M 321.894531 334.507812 L 331.066406 334.507812 L 331.066406 374.597656 L 321.894531 374.597656 Z M 321.894531 334.507812 " fill-opacity="1" fill-rule="nonzero"/></svg>