<svg xmlns="http://www.w3.org/2000/svg" xmlns:xlink="http://www.w3.org/1999/xlink" width="793" zoomAndPan="magnify" viewBox="0 0 595.5 842.249979" height="1122" preserveAspectRatio="xMidYMid meet" version="1.0"><path fill="#ffffff" d="M 396.707031 169.324219 C 392.269531 172.148438 390.121094 177.527344 391.0625 183.445312 C 391.734375 187.34375 390.523438 189.628906 381.246094 202.269531 C 375.464844 210.066406 363.632812 226.46875 354.757812 238.707031 L 338.890625 260.890625 L 332.707031 261.5625 C 325.582031 262.371094 327.460938 263.175781 300.167969 246.503906 C 282.6875 235.746094 280.539062 234 279.730469 229.964844 C 278.519531 224.183594 273.007812 219.480469 267.359375 219.480469 C 261.578125 219.480469 257.679688 222.839844 255.527344 229.429688 C 253.914062 234.269531 252.03125 235.746094 231.191406 248.519531 C 209.273438 262.101562 208.601562 262.371094 202.550781 261.5625 C 195.558594 260.621094 190.988281 262.503906 188.703125 267.480469 C 186.28125 272.859375 186.953125 277.296875 191.125 281.464844 C 198.519531 288.859375 208.332031 285.898438 211.964844 275.277344 C 213.980469 269.632812 215.054688 268.824219 246.386719 249.867188 C 257.546875 243.007812 258.082031 242.875 268.03125 243.007812 L 278.117188 243.144531 L 300.570312 256.992188 C 319.933594 268.824219 323.027344 271.246094 323.027344 274.203125 C 323.027344 276.085938 324.773438 279.175781 326.925781 281.464844 C 335.933594 290.472656 350.589844 282.136719 347.09375 270.035156 C 345.882812 265.730469 345.613281 266.136719 372.101562 230.101562 C 377.210938 222.972656 385.414062 211.679688 390.253906 204.957031 C 396.84375 195.8125 399.800781 192.722656 402.085938 192.722656 C 410.421875 192.453125 416.875 184.652344 415.128906 176.722656 C 413.378906 168.652344 403.699219 164.753906 396.707031 169.324219 Z M 396.707031 169.324219 " fill-opacity="1" fill-rule="nonzero"/><path fill="#ffffff" d="M 396.304688 225.394531 C 390.792969 227.816406 385.144531 234.671875 384.203125 240.050781 C 383.800781 242.472656 383.53125 284.554688 383.800781 333.765625 L 384.203125 423.179688 L 387.429688 427.347656 C 396.304688 439.316406 413.113281 438.105469 420.105469 425.199219 C 422.390625 420.761719 422.523438 416.1875 422.253906 329.0625 C 421.851562 226.335938 422.390625 231.847656 411.765625 226.46875 C 405.042969 223.109375 402.085938 222.839844 396.304688 225.394531 Z M 396.304688 225.394531 " fill-opacity="1" fill-rule="nonzero"/><path fill="#ffffff" d="M 258.890625 278.101562 C 256.46875 279.3125 253.242188 282.269531 251.761719 284.691406 C 249.207031 288.859375 249.074219 291.277344 249.074219 355.953125 C 249.074219 428.828125 248.804688 426.542969 256.871094 432.59375 C 261.847656 436.222656 273.140625 436.222656 278.25 432.457031 C 286.855469 426.140625 286.722656 427.214844 286.722656 355.28125 C 286.722656 292.625 286.585938 289.933594 284.03125 285.632812 C 278.65625 276.757812 268.03125 273.664062 258.890625 278.101562 Z M 258.890625 278.101562 " fill-opacity="1" fill-rule="nonzero"/><path fill="#ffffff" d="M 189.777344 320.726562 C 180.769531 326.773438 180.5 327.984375 180.5 376.792969 C 180.5 415.785156 180.769531 421.03125 182.921875 425.0625 C 189.507812 438.105469 206.71875 439.316406 215.59375 427.347656 L 218.820312 423.179688 L 218.820312 330.40625 L 215.730469 325.96875 C 209.542969 317.363281 198.25 315.078125 189.777344 320.726562 Z M 189.777344 320.726562 " fill-opacity="1" fill-rule="nonzero"/><path fill="#ffffff" d="M 327.730469 318.976562 C 326.253906 319.515625 323.292969 321.933594 321.007812 324.355469 L 316.976562 328.523438 L 316.570312 375.179688 C 316.304688 419.550781 316.4375 422.105469 318.859375 426.140625 C 324.503906 435.28125 334.050781 437.972656 343.597656 433.398438 C 353.949219 428.425781 353.949219 428.023438 353.949219 376.121094 C 353.949219 326.101562 353.816406 325.699219 345.480469 320.457031 C 340.773438 317.496094 332.707031 316.824219 327.730469 318.976562 Z M 327.730469 318.976562 " fill-opacity="1" fill-rule="nonzero"/></svg>