<svg xmlns="http://www.w3.org/2000/svg" xmlns:xlink="http://www.w3.org/1999/xlink" width="793" zoomAndPan="magnify" viewBox="0 0 595.5 842.249979" height="1122" preserveAspectRatio="xMidYMid meet" version="1.0"><path fill="#ffffff" d="M 123.890625 107.25 C 115.707031 109.902344 108.738281 115.960938 105.175781 123.613281 L 103.054688 128.160156 L 103.054688 391.8125 L 105.328125 396.359375 C 108.359375 402.417969 113.660156 407.648438 119.949219 410.601562 L 125.027344 413.027344 L 163.890625 413.253906 C 185.179688 413.40625 202.683594 413.632812 202.683594 413.859375 C 202.683594 414.085938 200.636719 417.421875 198.136719 421.285156 C 195.710938 425.222656 192.910156 430.527344 192 433.179688 C 190.03125 439.011719 189.195312 452.347656 190.484375 457.042969 C 191.695312 461.589844 195.484375 466.363281 199.121094 468.03125 C 202.226562 469.394531 205.5625 469.46875 296.097656 469.46875 C 387.464844 469.46875 389.96875 469.394531 392.769531 468.03125 C 396.558594 466.058594 400.117188 461.894531 401.105469 458.332031 C 402.164062 454.542969 402.164062 441.816406 401.105469 436.738281 C 400.117188 432.117188 397.46875 426.664062 392.542969 419.085938 L 389.132812 413.785156 L 427.921875 413.40625 C 452.621094 413.101562 467.546875 412.648438 469.0625 412.117188 C 478.53125 408.785156 486.183594 400.527344 488.683594 390.980469 C 489.746094 386.886719 489.820312 371.886719 489.671875 257.636719 C 489.441406 136.34375 489.367188 128.691406 488.078125 125.507812 C 485.730469 119.523438 481.410156 114.066406 476.640625 110.960938 C 468.003906 105.355469 483.003906 105.808594 296.324219 105.886719 C 137.601562 105.886719 127.828125 105.960938 123.890625 107.25 Z M 466.335938 122.402344 C 469.0625 123.917969 472.394531 127.097656 473.609375 129.449219 C 474.519531 131.191406 474.667969 150.738281 474.667969 259.152344 C 474.667969 347.492188 474.441406 387.417969 473.835938 388.933594 C 473.457031 390.070312 472.167969 392.039062 471.03125 393.175781 C 466.636719 397.796875 480.125 397.496094 296.628906 397.496094 C 130.480469 397.496094 128.359375 397.496094 125.40625 395.980469 C 121.84375 394.160156 119.722656 391.28125 118.585938 386.8125 C 118.054688 384.464844 117.828125 346.660156 117.980469 257.335938 C 118.207031 138.917969 118.285156 131.039062 119.496094 128.765625 C 121.3125 125.585938 125.554688 122.328125 129.042969 121.644531 C 130.558594 121.339844 206.699219 121.191406 298.144531 121.265625 C 437.46875 121.339844 464.746094 121.492188 466.335938 122.402344 Z M 372.011719 414.84375 C 372.238281 415.601562 375.117188 420.375 378.449219 425.453125 C 387.089844 438.632812 387.011719 438.40625 387.089844 446.742188 L 387.164062 453.9375 L 296.476562 454.164062 L 205.714844 454.316406 L 205.714844 447.347656 C 205.714844 438.785156 206.320312 437.347656 215.335938 423.480469 L 221.925781 413.40625 L 296.703125 413.40625 C 368.90625 413.40625 371.554688 413.480469 372.011719 414.84375 Z M 372.011719 414.84375 " fill-opacity="1" fill-rule="nonzero"/><path fill="#ffffff" d="M 370.648438 139.144531 C 363.449219 140.964844 356.707031 146.496094 353.375 153.160156 C 350.949219 158.238281 350.722656 169.527344 353.070312 174.679688 L 354.511719 178.011719 L 343.449219 188.84375 L 332.3125 199.605469 L 327.613281 197.710938 C 323.523438 196.042969 322.007812 195.816406 316.78125 196.117188 C 310.796875 196.421875 306.550781 198.011719 301.550781 201.648438 C 300.1875 202.632812 299.355469 202.253906 291.019531 196.875 L 282.003906 191.042969 L 281.929688 182.332031 C 281.855469 174.375 281.703125 173.3125 279.734375 169.601562 C 270.566406 152.175781 247.382812 149.675781 235.335938 164.90625 C 231.167969 170.207031 229.730469 174.90625 230.109375 182.558594 C 230.261719 187.101562 230.789062 189.753906 232.078125 192.332031 C 233.820312 195.890625 233.820312 195.96875 232.457031 197.710938 C 229.503906 201.496094 212.984375 219.453125 212.457031 219.453125 C 212.226562 219.453125 210.636719 218.921875 209.046875 218.242188 C 207.152344 217.484375 203.894531 216.953125 200.257812 216.953125 C 195.410156 216.953125 193.667969 217.332031 189.652344 219.226562 C 183.894531 221.953125 179.121094 226.652344 176.316406 232.332031 C 173.4375 238.167969 173.4375 246.046875 176.242188 252.03125 C 179.042969 257.863281 183.589844 262.714844 189.195312 265.746094 C 193.589844 268.167969 194.425781 268.320312 200.789062 268.320312 C 206.699219 268.320312 208.136719 268.015625 211.925781 266.199219 C 217.757812 263.320312 222.078125 258.925781 224.878906 252.941406 C 228.136719 246.046875 228.214844 238.699219 225.183594 232.03125 C 223.214844 227.710938 223.136719 227.484375 224.425781 225.96875 C 225.183594 225.136719 229.957031 219.757812 235.109375 214.074219 L 244.425781 203.621094 L 247.609375 205.132812 C 253.898438 207.9375 265.792969 206.648438 271.246094 202.484375 C 272.609375 201.421875 274.277344 200.511719 274.808594 200.511719 C 275.339844 200.511719 279.503906 203.164062 284.050781 206.421875 L 292.308594 212.257812 L 292.386719 220.96875 C 292.460938 228.621094 292.6875 230.136719 294.355469 233.46875 C 299.507812 244 311.023438 249.984375 322.691406 248.167969 C 331.328125 246.726562 337.613281 241.953125 341.78125 233.46875 C 344.433594 228.089844 344.507812 227.636719 344.207031 221.574219 C 343.980469 217.179688 343.375 214.378906 342.238281 212.179688 L 340.644531 209 L 351.402344 198.769531 C 357.3125 193.164062 362.390625 188.316406 362.691406 188.011719 C 362.996094 187.710938 364.964844 188.164062 367.011719 188.996094 C 372.996094 191.648438 378.300781 191.875 384.285156 189.980469 C 390.722656 187.9375 395.648438 184.375 398.832031 179.601562 C 410.121094 162.554688 398.984375 139.980469 378.679688 138.765625 C 375.875 138.617188 372.238281 138.765625 370.648438 139.144531 Z M 381.253906 152.101562 C 387.390625 154.375 391.40625 162.40625 389.816406 168.921875 C 389.285156 170.738281 387.921875 173.464844 386.710938 174.90625 C 378.679688 184.679688 362.390625 179.828125 361.175781 167.328125 C 360.648438 161.496094 364.585938 154.523438 369.738281 152.328125 C 372.542969 151.117188 378.375 150.964844 381.253906 152.101562 Z M 262.914062 167.859375 C 271.324219 171.648438 274.050781 182.179688 268.671875 189.679688 C 265.945312 193.46875 261.777344 195.511719 256.851562 195.511719 C 247.078125 195.511719 240.261719 186.648438 242.761719 177.179688 C 244.425781 171.042969 250.488281 166.421875 256.851562 166.421875 C 258.519531 166.421875 261.246094 167.101562 262.914062 167.859375 Z M 324.734375 210.515625 C 328.523438 212.636719 331.328125 216.726562 331.933594 221.121094 C 333.296875 230.816406 325.039062 238.699219 315.039062 237.332031 C 303.21875 235.742188 298.523438 220.816406 307.160156 212.558594 C 312.160156 207.863281 318.675781 207.105469 324.734375 210.515625 Z M 206.699219 229.605469 C 209.652344 230.894531 213.667969 234.984375 214.730469 237.863281 C 217.757812 245.742188 213.289062 254.683594 205.105469 257.03125 C 190.789062 261.199219 180.636719 245.210938 190.332031 233.847656 C 191.847656 232.105469 194.195312 230.136719 195.410156 229.605469 C 198.441406 228.316406 203.667969 228.316406 206.699219 229.605469 Z M 206.699219 229.605469 " fill-opacity="1" fill-rule="nonzero"/><path fill="#ffffff" d="M 350.417969 245.136719 L 348.144531 247.335938 L 348.144531 295.972656 L 302.6875 295.972656 L 302.6875 286.425781 C 302.6875 276.957031 302.6875 276.882812 300.492188 274.683594 L 298.292969 272.488281 L 268.21875 272.488281 C 236.699219 272.488281 234.730469 272.714844 233.441406 275.898438 C 233.214844 276.578125 232.988281 285.140625 232.988281 294.835938 L 232.988281 312.566406 L 178.285156 313.019531 L 174.652344 317.261719 L 174.652344 376.964844 L 178.285156 381.207031 L 295.644531 381.433594 C 410.878906 381.585938 413 381.585938 415.347656 380.070312 C 417.015625 379.085938 417.921875 377.871094 418.226562 376.128906 C 418.453125 374.765625 418.527344 345.066406 418.453125 310.21875 L 418.226562 246.804688 L 414.742188 243.320312 L 383.679688 243.089844 L 352.617188 242.863281 Z M 405.726562 311.503906 L 405.726562 367.949219 L 360.269531 367.949219 L 360.269531 255.0625 L 405.726562 255.0625 Z M 290.945312 326.277344 L 290.945312 367.570312 L 268.066406 367.796875 L 245.109375 367.949219 L 245.109375 284.609375 L 268.066406 284.761719 L 290.945312 284.988281 Z M 348.144531 338.023438 L 348.144531 367.949219 L 302.6875 367.949219 L 302.6875 308.09375 L 348.144531 308.09375 Z M 232.988281 345.976562 L 232.988281 367.949219 L 210.105469 367.796875 L 187.152344 367.570312 L 186.925781 345.75 L 186.773438 324.003906 L 232.988281 324.003906 Z M 232.988281 345.976562 " fill-opacity="1" fill-rule="nonzero"/></svg>